<svg width="177" height="100" viewBox="0 0 177 100" fill="none" xmlns="http://www.w3.org/2000/svg">
<path d="M125.798 36.3518C126.186 34.7277 125.397 33.2122 124.575 31.9837C123.67 30.6312 122.158 29.432 120.469 29C120.775 30.5328 121.668 31.8552 122.528 33.0988C123.382 34.3341 124.459 35.5854 125.798 36.3518Z" fill="#394149"/>
<path d="M53.2075 31.9821C52.384 33.2099 51.5934 34.7248 51.9804 36.3492C53.3199 35.5839 54.3984 34.3334 55.2535 33.0987C56.1144 31.8559 57.0088 30.534 57.3157 29.0015C55.6265 29.4323 54.114 30.6304 53.2075 31.9821Z" fill="#394149"/>
<path d="M50.8019 39.4651C51.104 38.1787 51.0973 36.7704 50.8097 35.5638C50.5568 34.5034 50.1888 33.0044 48.9776 32.4986C48.0972 33.9108 47.7433 35.8339 48.2564 37.2749C48.6274 38.3172 49.2946 39.6953 50.6783 39.9086C51.948 40.2013 53.2319 39.524 54.2459 38.9648C55.3734 38.3431 56.4778 37.354 57.1488 36.1781C55.9179 35.5568 54.5161 36.061 53.4615 36.5442C52.3247 37.0651 51.2804 38.1827 50.8019 39.4651Z" fill="#394149"/>
<path d="M75.4431 34.2424V40.701H73.2381V38.3562H69.9306V40.701H67.7256V34.2424H69.9306V36.5955H73.2381V34.2424H75.4431Z" fill="#394149"/>
<path d="M82.7547 34.2424H85.19L81.7345 38.5701V40.701H79.5213V38.5783L76.1069 34.2424H78.6162L80.6567 36.8258L82.7547 34.2424Z" fill="#394149"/>
<path fill-rule="evenodd" clip-rule="evenodd" d="M93.5523 36.5708C93.5523 35.7234 93.3055 35.1392 92.8694 34.7936C92.4498 34.4234 91.7751 34.2424 90.8866 34.2424H85.876V40.701H88.0892V38.891C88.0892 38.891 90.6233 38.8992 90.9195 38.891C91.8739 38.8827 92.6061 38.6524 93.0504 38.1423C93.3795 37.7802 93.5523 37.2619 93.5523 36.5708ZM91.3309 36.6037C91.3309 36.8094 91.298 36.9575 91.2321 37.0727C91.1005 37.2784 90.829 37.3853 90.3682 37.3853H88.0728V35.8056H90.3847C90.8125 35.8056 91.0758 35.9044 91.2157 36.1101C91.2897 36.2088 91.3309 36.3898 91.3309 36.6037Z" fill="#394149"/>
<path d="M101.237 39.0966V40.701H94.433V34.2424H101.18V35.855H96.605V36.686H101.048V38.2574H96.605V39.0966H101.237Z" fill="#394149"/>
<path fill-rule="evenodd" clip-rule="evenodd" d="M109.934 36.2088C109.934 35.6246 109.795 35.205 109.498 34.9006C109.112 34.4892 108.445 34.2424 107.425 34.2424H102.283V40.701H104.48V38.422H106.479L108.083 40.701H110.535L108.585 38.0682C109.021 38.0024 109.375 37.7391 109.605 37.4265C109.811 37.1385 109.934 36.7107 109.934 36.2088ZM107.795 36.4145C107.795 36.5214 107.779 36.6531 107.721 36.7518C107.639 36.9164 107.425 36.9822 107.071 36.9822H104.488V35.8056H107.03C107.376 35.8056 107.606 35.8632 107.721 36.0771C107.779 36.1594 107.795 36.2911 107.795 36.4145Z" fill="#394149"/>
<path d="M100.059 48.8017C100.059 47.3254 99.121 46.5495 96.9334 46.3124C96.5778 46.2693 95.5325 46.1615 94.8751 46.1076C93.1832 45.9244 92.6768 45.8275 92.6768 45.3964C92.6768 45.0085 93.0755 44.8253 94.5949 44.8253C95.6726 44.8253 96.2761 45.03 96.5131 45.3425C96.6317 45.4934 96.6748 45.6119 96.6856 45.7305H99.7892C99.7568 45.4718 99.6491 45.1054 99.4766 44.7822C98.9163 43.7045 97.5692 42.8424 94.6704 42.8424C91.4051 42.8424 89.6163 43.9955 89.6163 45.5042C89.6163 46.959 90.6292 47.8103 93.3664 48.0582C93.6823 48.0852 94.3683 48.1501 94.9184 48.2021L94.9245 48.2027L94.9269 48.2029L95.22 48.2306C96.6532 48.3815 97.0412 48.4784 97.0412 48.9311C97.0412 49.3513 96.664 49.5776 95.0799 49.5776C93.8514 49.5776 93.1294 49.3944 92.8707 49.0819C92.763 48.9526 92.6875 48.7586 92.666 48.6293H89.5624C89.5947 48.8448 89.6486 49.1897 89.7671 49.4699C90.2952 50.6553 91.6746 51.5605 94.8751 51.5605C98.3128 51.5605 100.059 50.5906 100.059 48.8017Z" fill="#394149"/>
<path fill-rule="evenodd" clip-rule="evenodd" d="M78.5418 49.0388C78.5418 49.6207 78.3802 50.1919 78.0569 50.5691C77.5612 51.1725 76.6344 51.4312 75.4382 51.4312H67.9271V42.9717H75.2335C76.3973 42.9717 77.1409 43.2519 77.5504 43.6722C77.9168 44.0386 78.0784 44.5235 78.0784 45.0731C78.0784 45.6227 77.9491 46.0753 77.6689 46.4094C77.4426 46.6896 77.0547 46.9051 76.6452 46.959C77.2486 47.0344 77.8198 47.3361 78.1431 47.7564C78.4125 48.0689 78.5418 48.5431 78.5418 49.0388ZM74.9102 46.0753C75.0179 45.9568 75.0826 45.7844 75.0826 45.5796C75.0826 45.3748 75.0179 45.2024 74.8778 45.0839C74.727 44.9438 74.4468 44.8899 74.0373 44.8899H70.7505V46.2693H74.1127C74.4791 46.2693 74.7593 46.2154 74.9102 46.0753ZM74.4252 49.513C74.9317 49.513 75.2335 49.4483 75.4059 49.2867C75.5136 49.1789 75.5567 49.0173 75.5567 48.8125C75.5567 48.597 75.5029 48.4353 75.3735 48.306C75.2119 48.1659 74.9317 48.1013 74.4576 48.1013H70.7505V49.513H74.4252Z" fill="#394149"/>
<path d="M88.6889 49.3298V51.4312H79.7769V42.9717H88.6135V45.0839H82.6218V46.1723H88.4411V48.2306H82.6218V49.3298H88.6889Z" fill="#394149"/>
<path d="M110.545 42.9717V45.0947H106.967V51.4312H104.015V45.0947H100.448V42.9717H110.545Z" fill="#394149"/>
<path d="M110.289 58.8853L110.289 58.9168H109.814L109.78 58.4594C109.635 58.691 109.328 58.9689 108.68 58.9689C107.585 58.9689 107.076 58.3088 107.076 56.6238C107.076 55.321 107.4 54.273 108.737 54.273C109.896 54.273 110.249 55.0315 110.266 55.8479H109.687C109.67 55.3152 109.432 54.823 108.749 54.823C107.927 54.823 107.689 55.3152 107.689 56.6412C107.689 58.0251 107.985 58.4594 108.761 58.4594C109.305 58.4594 109.623 58.1583 109.728 57.7993V56.9365H108.558V56.4096H110.283V57.7414C110.283 58.2199 110.288 58.737 110.289 58.8791L110.289 58.8829L110.289 58.8853Z" fill="#394149"/>
<path fill-rule="evenodd" clip-rule="evenodd" d="M69.658 57.7645H68.0367L67.6892 58.9168H67.0812L68.5173 54.3309H69.2642L70.6076 58.9168H69.9938L69.658 57.7645ZM68.193 57.2492H69.5132C69.5132 57.2492 68.9747 55.3847 68.9689 55.3558L68.9404 55.2198L68.8763 54.9157C68.8763 54.9157 68.7836 55.3268 68.7778 55.3558C68.7662 55.3963 68.193 57.2492 68.193 57.2492Z" fill="#394149"/>
<path d="M75.0025 54.3309H75.5584L74.4756 58.9168H73.7865C73.7865 58.9168 73.0164 55.35 73.0164 55.1994C73.0106 55.35 72.2231 58.9168 72.2231 58.9168H71.5341L70.4513 54.3309H71.0766C71.0766 54.3309 71.9162 57.9614 71.9162 58.1062C71.9162 57.9614 72.6864 54.3309 72.6864 54.3309H73.3754C73.3754 54.3309 74.1455 57.9672 74.1455 58.1062C74.1455 57.9672 75.0025 54.3309 75.0025 54.3309Z" fill="#394149"/>
<path fill-rule="evenodd" clip-rule="evenodd" d="M76.315 57.7645H77.9363L78.2722 58.9168H78.886L77.5426 54.3309H76.7956L75.3596 58.9168H75.9676L76.315 57.7645ZM77.7916 57.2492H76.4714C76.4714 57.2492 77.0446 55.3963 77.0562 55.3558C77.062 55.3268 77.1546 54.9157 77.1546 54.9157L77.2035 55.1471L77.2473 55.3558C77.2531 55.3847 77.7916 57.2492 77.7916 57.2492Z" fill="#394149"/>
<path fill-rule="evenodd" clip-rule="evenodd" d="M81.117 54.3309C81.8234 54.3309 82.2056 54.6609 82.2056 55.6221C82.2056 56.4386 81.8987 56.7107 81.5802 56.8033L82.4604 58.9168H81.8234L81.007 56.9192H79.8953V58.9168H79.3162V54.3309H81.117ZM81.0302 56.398C81.4876 56.398 81.5976 56.1606 81.5976 55.6395C81.5976 55.0489 81.4239 54.8694 81.0012 54.8694H79.901V56.398H81.0302Z" fill="#394149"/>
<path fill-rule="evenodd" clip-rule="evenodd" d="M85.7481 58.4015C85.9797 58.0714 86.0607 57.6314 86.0607 56.5486C86.0607 55.57 85.9913 55.1531 85.7597 54.8173C85.5512 54.5046 85.0996 54.3309 84.5205 54.3309H82.9861V58.9168H84.561C85.1517 58.9168 85.5165 58.72 85.7481 58.4015ZM85.2385 58.0772C85.088 58.2799 84.7927 58.3725 84.4395 58.3725H83.5709V54.8809H84.4279C84.7811 54.8809 85.0822 54.9736 85.2385 55.1878C85.4064 55.4368 85.447 55.8248 85.447 56.5486C85.447 57.4113 85.4007 57.8572 85.2385 58.0772Z" fill="#394149"/>
<path d="M92.17 54.3309H92.7259L91.6431 58.9168H90.954C90.954 58.9168 90.1839 55.35 90.1839 55.1994C90.1781 55.35 89.3906 58.9168 89.3906 58.9168H88.7016L87.6188 54.3309H88.2441C88.2441 54.3309 89.0837 57.9614 89.0837 58.1062C89.0837 57.9614 89.8538 54.3309 89.8538 54.3309H90.5429C90.5429 54.3309 91.313 57.9672 91.313 58.1062C91.313 57.9672 92.17 54.3309 92.17 54.3309Z" fill="#394149"/>
<path d="M93.7497 58.9168V54.3309H93.1475V58.9168H93.7497Z" fill="#394149"/>
<path d="M97.5195 54.3309V58.9168H96.8536L95.1454 55.3615V58.9168H94.5837V54.3309H95.2844L96.952 57.834V54.3309H97.5195Z" fill="#394149"/>
<path d="M101.274 58.9168V54.3309H100.707V57.834L99.0391 54.3309H98.3384V58.9168H98.9001V55.3615L100.608 58.9168H101.274Z" fill="#394149"/>
<path d="M102.695 54.3309V58.9168H102.093V54.3309H102.695Z" fill="#394149"/>
<path d="M106.465 58.9168V54.3309H105.898V57.834L104.23 54.3309H103.529V58.9168H104.091V55.3615L105.799 58.9168H106.465Z" fill="#394149"/>
<path d="M74.5553 67.9554L73.8918 65.9132L73.2282 67.9554H71.081L72.8181 69.2176L72.1546 71.2598L73.8918 69.9976L75.629 71.2598L74.9654 69.2176L76.7026 67.9554H74.5553Z" fill="#394149"/>
<path d="M81.5517 65.9134L82.2288 67.9556H84.4199L82.6473 69.2177L83.3244 71.2599L81.5517 69.9978L79.7791 71.2599L80.4562 69.2177L78.6835 67.9556H80.8746L81.5517 65.9134Z" fill="#394149"/>
<path d="M89.8289 67.9556L89.1518 65.9134L88.4747 67.9556H86.2836L88.0562 69.2177L87.3791 71.2599L89.1518 69.9978L90.9244 71.2599L90.2473 69.2177L92.02 67.9556H89.8289Z" fill="#394149"/>
<path d="M96.7517 65.9134L97.4288 67.9556H99.6199L97.8472 69.2177L98.5243 71.2599L96.7517 69.9978L94.979 71.2599L95.6561 69.2177L93.8835 67.9556H96.0746L96.7517 65.9134Z" fill="#394149"/>
<path d="M105.075 67.9556L104.412 65.9134L103.748 67.9556H101.601L103.338 69.2177L102.675 71.2599L104.412 69.9978L106.149 71.2599L105.485 69.2177L107.223 67.9556H105.075Z" fill="#394149"/>
<path d="M49.8917 45.0483C48.4829 45.0823 47.5167 43.8891 46.8923 42.9365C46.0688 41.6805 45.9055 39.7839 46.4173 38.2338C47.7163 38.503 48.4444 39.8496 48.9669 40.8458C49.5384 41.9355 49.8929 43.2882 49.905 44.5979C50.0664 43.2906 50.8177 42.0174 51.7946 41.3217C52.7301 40.6556 53.9846 39.9494 55.2949 40.3306C54.9372 41.5731 54.0899 42.7224 53.1512 43.5083C52.2796 44.238 51.1728 45.1123 49.8917 45.0483Z" fill="#394149"/>
<path d="M50.3085 50.1789C49.001 50.398 47.7256 49.5969 46.8973 48.6546C45.8309 47.4414 45.1964 45.8139 45.3258 44.1846C46.669 44.2187 47.6863 45.3798 48.4382 46.2578C49.248 47.2034 49.9115 48.4475 50.2298 49.7309C50.0898 48.4519 50.5192 47.0708 51.3163 46.2174C52.0857 45.3936 53.1635 44.4958 54.5045 44.6399C54.4756 45.9368 53.8255 47.1724 53.155 48.0978C52.53 48.9602 51.5672 50.0269 50.3085 50.1789Z" fill="#394149"/>
<path d="M52.0927 55.461C50.5578 56.0483 49.0973 55.2723 47.8931 54.4883C46.3957 53.5135 45.2811 51.6186 45 49.7921C46.4774 49.6086 47.9442 50.5842 48.9625 51.5103C50.0827 52.5291 51.1402 53.6317 51.8633 54.9944C51.3739 53.6698 51.4961 52.166 52.1332 50.9026C52.7426 49.6941 53.89 48.7041 55.2737 48.5813C55.5149 49.9305 55.1665 51.3519 54.6449 52.5846C54.1525 53.748 53.3519 55.0155 52.0927 55.461Z" fill="#394149"/>
<path d="M55.1944 60.3988C56.3794 59.6904 56.8563 58.1998 57.0512 56.9225C57.2613 55.545 57.2523 54.0258 56.6802 52.719C55.3054 53.103 54.3617 54.3404 54.0501 55.6957C53.7209 57.1276 53.9987 58.6537 54.7995 59.8729C53.735 58.6516 52.3195 57.6432 50.963 56.9361C49.6527 56.2531 48.0452 55.4293 46.4716 55.9268C47.2304 57.7787 48.8536 59.5029 50.6526 60.2161C52.0458 60.7683 53.7407 61.3144 55.1944 60.3988Z" fill="#394149"/>
<path d="M59.9489 64.9176C60.9812 63.8942 60.9861 62.2078 60.8122 60.8782C60.617 59.385 60.1799 57.8121 59.2465 56.587C57.9095 57.2693 57.2882 58.8007 57.3266 60.2321C57.3693 61.8325 58.2416 63.4203 59.4388 64.5021C57.9386 63.4363 56.1448 62.6563 54.4615 62.172L54.3754 62.1473C52.8674 61.713 51.0045 61.1765 49.4813 62.0152C50.7285 63.8925 53.0555 65.3024 55.1227 65.6927C56.6625 65.9832 58.6589 66.238 59.9489 64.9176Z" fill="#394149"/>
<path d="M66.8033 68.6824C67.5635 67.2353 66.8103 65.5369 66.2101 64.2816C65.5005 62.7976 64.531 61.2852 63.1435 60.199C61.8112 61.3472 61.9379 62.9901 62.334 64.4179C62.805 66.1156 64.4379 67.5628 66.1288 68.3875C64.1705 67.6572 62.0318 67.2189 59.997 67.0895L59.7909 67.0762C58.1562 66.9697 56.0281 66.8311 54.7255 68.0274C56.695 69.7017 59.4925 70.6677 61.9581 70.6175C63.6104 70.5839 65.8774 70.3884 66.8033 68.6824Z" fill="#394149"/>
<path d="M124.317 36.5455C125.453 37.0674 126.497 38.1864 126.974 39.4697C126.673 38.1827 126.681 36.7739 126.97 35.567C127.223 34.5067 127.593 33.0081 128.805 32.503C129.684 33.9161 130.036 35.8396 129.521 37.2799C129.149 38.3222 128.48 39.7 127.096 39.912C125.826 40.2035 124.543 39.5253 123.53 38.9655C122.403 38.3429 121.3 37.353 120.63 36.1766C121.861 35.5564 123.262 36.0615 124.317 36.5455Z" fill="#394149"/>
<path d="M125.979 41.3244C126.955 42.0204 127.704 43.2929 127.865 44.5993C127.879 43.2903 128.235 41.9389 128.807 40.8503C129.33 39.8544 130.06 38.5084 131.359 38.2401C131.869 39.7907 131.704 41.6872 130.879 42.9425C130.255 43.8934 129.289 45.0841 127.883 45.0522C126.6 45.1177 125.492 44.2413 124.62 43.5101C123.682 42.7234 122.836 41.5735 122.48 40.3308C123.79 39.9504 125.044 40.6576 125.979 41.3244Z" fill="#394149"/>
<path d="M126.452 46.2202C127.25 47.0753 127.678 48.4593 127.535 49.7394C127.854 48.4545 128.519 47.209 129.331 46.2628C130.084 45.3854 131.102 44.2252 132.446 44.192C132.573 45.8215 131.937 47.4485 130.87 48.6608C130.04 49.603 128.763 50.4037 127.455 50.1822C126.197 50.0285 125.236 48.9618 124.612 48.0993C123.942 47.1734 123.293 45.9372 123.266 44.6403C124.607 44.4972 125.684 45.3958 126.452 46.2202Z" fill="#394149"/>
<path d="M125.631 50.905C126.267 52.1691 126.388 53.6732 125.897 54.9974C126.621 53.6349 127.68 52.533 128.801 51.5149C129.82 50.5895 131.288 49.6152 132.765 49.7997C132.483 51.6261 131.366 53.5202 129.868 54.4938C128.664 55.2758 127.205 56.0502 125.672 55.4653C124.411 55.0206 123.61 53.7505 123.118 52.5851C122.597 51.352 122.25 49.9304 122.493 48.5813C123.876 48.7052 125.023 49.6961 125.631 50.905Z" fill="#394149"/>
<path d="M123.71 55.6968C124.037 57.128 123.758 58.6526 122.958 59.8706C124.023 58.6513 125.439 57.645 126.795 56.9393C128.106 56.2573 129.714 55.4347 131.287 55.9332C130.527 57.7847 128.902 59.5077 127.102 60.2196C125.707 60.7716 124.008 61.3174 122.553 60.3946C121.375 59.6836 120.901 58.196 120.707 56.9212C120.499 55.5434 120.509 54.0243 121.082 52.7181C122.457 53.1031 123.4 54.3412 123.71 55.6968Z" fill="#394149"/>
<path d="M116.942 60.8743C116.767 62.2036 116.77 63.8899 117.802 64.9142C119.09 66.2356 121.087 65.9822 122.627 65.6927C124.695 65.304 127.023 63.8956 128.272 62.0194C126.75 61.1797 124.886 61.7146 123.378 62.1477L123.291 62.1725C121.608 62.6553 119.814 63.4337 118.313 64.4979C119.511 63.417 120.384 61.8305 120.428 60.2307C120.468 58.7994 119.848 57.2675 118.512 56.5841C117.577 57.8085 117.139 59.3812 116.942 60.8743Z" fill="#394149"/>
<path d="M110.944 68.6737C111.868 70.3805 114.135 70.5776 115.787 70.6125C118.253 70.6645 121.051 69.7004 123.022 68.0278C121.721 66.8308 119.593 66.9676 117.958 67.0728L117.751 67.086C115.716 67.214 113.577 67.6507 111.618 68.3795C113.31 67.5562 114.944 66.11 115.417 64.4126C115.814 62.9852 115.943 61.3424 114.611 60.1933C113.223 61.2783 112.252 62.79 111.541 64.2735C110.943 65.5214 110.193 67.2076 110.931 68.6503L110.944 68.6737Z" fill="#394149"/>
</svg>
