<svg width="177" height="100" viewBox="0 0 177 100" fill="none" xmlns="http://www.w3.org/2000/svg">
<path d="M45.0312 36.1781C44.3959 34.5635 44.6717 32.707 45.2569 31.1456C45.8726 29.5026 46.9447 27.8641 48.5471 27C48.6266 28.7314 48.0977 30.442 47.5198 31.9845C47.0001 33.3719 46.3624 34.85 45.3094 35.9974C45.1476 36.8668 45.0236 37.7338 44.9364 38.5968C45.2854 37.6851 45.8513 36.8541 46.5574 36.1859C47.4665 35.3255 48.8188 34.6616 50.0882 35.0542C49.7164 36.4574 48.8689 37.8025 47.8652 38.7461C47.0752 39.4888 46.0323 40.4405 44.8039 40.4779C44.7533 41.7479 44.7819 43.0063 44.8864 44.2476C45.0597 43.3392 45.431 42.4838 45.9675 41.8468C46.7045 40.9715 47.7973 39.9021 49.1929 40.081C49.1167 41.5012 48.5502 42.9563 47.7613 44.0497C47.1344 44.9186 46.3068 46.026 45.1321 46.3121C45.3202 47.5318 45.5822 48.7313 45.9146 49.905C45.9178 49.0063 46.1163 48.1242 46.5101 47.4167C47.0651 46.419 47.9295 45.1748 49.3267 45.0775C49.5315 46.4708 49.254 47.9939 48.6942 49.2053C48.2468 50.1736 47.6503 51.4084 46.563 51.9193C47.0196 53.1821 47.5599 54.4096 48.1794 55.5944C47.9619 54.5732 47.9706 53.4971 48.228 52.5289C48.5827 51.1941 49.4632 49.792 50.8768 49.3851C51.3765 50.8587 51.3076 52.5033 51.0173 54.0011C50.7784 55.2343 50.309 56.6827 49.2568 57.4838C49.9447 58.5939 50.7057 59.6593 51.5356 60.673C51.0897 59.6788 50.8681 58.5915 50.987 57.596C51.1602 56.1458 51.5677 54.5944 53.049 53.8212C53.8894 55.2712 54.0841 56.8979 54.1555 58.5046C54.2132 59.8035 54.0261 61.4056 53.124 62.4623C54.1163 63.494 55.187 64.4596 56.3306 65.35C55.5923 64.4029 55.0753 63.2915 54.9658 62.1924C54.8112 60.6395 54.8868 58.93 56.2649 57.7904C57.4435 59.0214 58.1468 60.8343 58.4915 62.4089C58.7963 63.8011 59.1145 65.4489 58.3888 66.819C59.8442 67.769 61.3979 68.606 63.0406 69.3148C61.8847 68.4911 60.9385 67.361 60.4877 66.1942C59.897 64.6647 59.5316 62.8422 60.6823 61.3104C62.224 62.2979 63.3571 63.9827 64.2498 65.5193C65.0158 66.8378 65.8087 68.6576 65.4153 70.2279C66.3248 70.5365 67.2578 70.8075 68.2131 71.0387L68.1563 71.2732C67.1974 71.0411 66.2608 70.7692 65.3476 70.4597C64.7078 72.3504 62.6119 72.975 60.9169 73.2508C58.5018 73.6437 55.6261 72.8824 53.5643 71.3488C54.6525 69.8109 56.8728 69.6549 58.547 69.5372L58.5688 69.5357C60.4029 69.4068 62.3866 69.579 64.231 70.0582C62.1003 69.2471 60.1066 68.2273 58.2682 67.0284L58.2411 67.0712C57.2337 68.7047 55.2111 68.7684 53.6235 68.6651C51.4692 68.5249 48.982 67.215 47.5425 65.4043C48.8965 64.2163 50.8964 64.5488 52.446 64.8064L52.4535 64.8076C54.183 65.0951 56.0729 65.7223 57.6593 66.688C57.5082 66.569 57.3603 66.4431 57.2166 66.3111C55.6742 65.2114 54.2514 63.9813 52.9603 62.6401C52.9453 62.6551 52.9301 62.67 52.9148 62.6848C51.6594 63.9477 49.831 63.617 48.4041 63.206C46.4946 62.656 44.5143 60.9967 43.5653 59.0918C45.0359 58.2678 46.7941 58.9468 48.1617 59.4839C49.6627 60.0734 51.2508 61.0164 52.4719 62.2185C52.346 62.0597 52.2259 61.8938 52.1124 61.7221C50.9774 60.4411 49.9564 59.0694 49.0588 57.6223L49.0138 57.6505C47.5936 58.567 45.9845 57.9033 44.7092 57.2506C42.9801 56.3657 41.5906 54.4209 40.9902 52.5083C42.5241 52.017 44.0396 52.9813 45.2177 53.745C46.5062 54.5802 47.8114 55.7714 48.7073 57.1375C48.6415 57.0029 48.5802 56.8653 48.5237 56.7251C47.6629 55.2233 46.9316 53.6467 46.3396 52.0112L46.3091 52.0216L46.3066 52.0225C45.0153 52.5134 43.5773 51.7502 42.6398 50.9132C41.3368 49.75 40.4184 47.9617 40.2031 46.2146C41.5494 46.0402 42.8178 47.0818 43.685 47.9702C44.6832 48.9927 45.5791 50.2012 46.1299 51.5435C46.0897 51.3977 46.0552 51.2496 46.0262 51.1C45.525 49.5631 45.1453 47.9781 44.895 46.3577L44.8755 46.3601L44.8689 46.3612C43.5037 46.5891 42.2415 45.5512 41.4874 44.5439C40.4294 43.1304 39.884 41.1741 40.0207 39.401C41.3806 39.4961 42.4161 40.7898 43.0876 41.8363C43.8648 43.0478 44.5093 44.4189 44.7916 45.8533C44.783 45.7392 44.7779 45.6244 44.7761 45.5093C44.5688 43.8601 44.4949 42.1771 44.5625 40.4733L44.5586 40.4731C43.1706 40.4231 42.1448 39.1344 41.6152 37.9913C40.8574 36.3555 40.7354 34.2878 41.2412 32.5452C42.5641 32.9165 43.3016 34.434 43.7369 35.6021C44.2388 36.9489 44.5891 38.4178 44.5919 39.8782C44.6641 38.653 44.8095 37.4181 45.0312 36.1781Z" fill="#394149"/>
<path d="M72.3684 33.1554V39.0052C72.3684 41.5781 70.0382 42.816 66.5065 42.816C63.2054 42.816 60.8388 41.5903 60.8388 38.7018V33.1554H64.1278V38.7018C64.1278 39.7334 65.0137 40.3766 66.64 40.3766C68.1935 40.3766 69.1159 39.7091 69.1159 38.7139V33.1554H72.3684Z" fill="#394149"/>
<path d="M83.3223 40.146V42.6825H74.2321V33.1554H77.5211V40.146H83.3223Z" fill="#394149"/>
<path d="M93.0968 35.5463V33.1554H81.7249V35.5463H85.7421V42.6825H89.0675V35.5463H93.0968Z" fill="#394149"/>
<path fill-rule="evenodd" clip-rule="evenodd" d="M104.763 34.1264C105.2 34.5754 105.407 35.1944 105.407 36.056C105.407 36.7964 105.225 37.4275 104.921 37.8522C104.581 38.3134 104.059 38.7018 103.416 38.7989L106.293 42.6825H102.676L100.309 39.3207H97.3602V42.6825H94.1197V33.1554H101.705C103.21 33.1554 104.193 33.5195 104.763 34.1264ZM102.142 36.8571C102.227 36.7114 102.251 36.5172 102.251 36.3595C102.251 36.1774 102.227 35.9832 102.142 35.8619C101.972 35.5463 101.632 35.4614 101.122 35.4614H97.3723V37.1969H101.183C101.705 37.1969 102.021 37.0998 102.142 36.8571Z" fill="#394149"/>
<path fill-rule="evenodd" clip-rule="evenodd" d="M110.671 40.9228H115.817L116.654 42.6825H120.162L115.356 33.1554H111.436L106.351 42.6825H109.785L110.671 40.9228ZM114.785 38.7867H111.739L112.941 36.493L113.305 35.6191L113.645 36.4808L114.785 38.7867Z" fill="#394149"/>
<path fill-rule="evenodd" clip-rule="evenodd" d="M104.416 44.4768C102.38 44.4768 101.309 45.4418 101.309 46.8598C101.309 48.4603 102.433 49.2722 104.416 49.2722C106.599 49.2722 107.517 48.3308 107.517 46.8598C107.517 45.3653 106.481 44.4768 104.416 44.4768ZM104.416 48.0896C103.257 48.0896 102.921 47.613 102.921 46.8775C102.921 46.1538 103.286 45.6772 104.41 45.6772C105.64 45.6772 105.916 46.2126 105.916 46.8775C105.916 47.5836 105.581 48.0896 104.416 48.0896Z" fill="#394149"/>
<path d="M98.2913 49.2016V46.4656H95.2199V47.46H96.8615C96.8498 47.5365 96.7909 47.6836 96.7144 47.7718C96.5438 47.9719 96.0907 48.1484 95.5023 48.1484C94.8904 48.1484 94.4962 47.9895 94.2844 47.7424C94.1432 47.56 94.0608 47.3011 94.0608 46.9128C94.0608 46.5068 94.1432 46.2303 94.302 46.0479C94.5315 45.789 94.9198 45.6772 95.4906 45.6772C96.0025 45.6772 96.3555 45.7948 96.5203 45.9419C96.6262 46.0302 96.7085 46.1538 96.7262 46.2361H98.2501C98.2443 46.089 98.1972 45.8537 98.1148 45.6831C97.75 44.9417 96.9027 44.5004 95.4612 44.5004C94.2079 44.5004 93.3665 44.8828 92.9017 45.4595C92.5957 45.8537 92.4545 46.3479 92.4545 46.901C92.4545 47.513 92.6192 48.0366 92.8899 48.3838C93.3488 48.9781 94.1667 49.2722 95.1493 49.2722C96.0143 49.2722 96.6085 49.0663 96.9851 48.7545L97.0263 49.2016H98.2913Z" fill="#394149"/>
<path d="M82.2632 46.4068C83.4576 46.5362 83.9695 46.9599 83.9695 47.766C83.9695 48.7427 83.0163 49.2722 81.1393 49.2722C79.3918 49.2722 78.6387 48.778 78.3503 48.1308C78.2856 47.9778 78.2562 47.7895 78.2385 47.6718H79.9331C79.9449 47.7424 79.9861 47.8483 80.0449 47.9189C80.1861 48.0896 80.5803 48.1896 81.2511 48.1896C82.1161 48.1896 82.322 48.066 82.322 47.8366C82.322 47.5894 82.1102 47.5365 81.3276 47.4541C81.0158 47.4247 80.5215 47.3776 80.3156 47.36C78.8211 47.2246 78.268 46.7598 78.268 45.9655C78.268 45.1417 79.2447 44.5122 81.0275 44.5122C82.6103 44.5122 83.3458 44.9829 83.6518 45.5713C83.7459 45.7478 83.8047 45.9478 83.8224 46.089H82.1278C82.1219 46.0243 82.0984 45.9596 82.0337 45.8772C81.9042 45.7066 81.5747 45.5948 80.9863 45.5948C80.1567 45.5948 79.939 45.6948 79.939 45.9066C79.939 46.142 80.2156 46.195 81.1393 46.295C81.4982 46.3244 82.069 46.3832 82.2632 46.4068Z" fill="#394149"/>
<path fill-rule="evenodd" clip-rule="evenodd" d="M65.3707 44.977C65.6825 45.2241 65.859 45.6419 65.859 46.2479C65.859 46.7422 65.7355 47.1128 65.5001 47.3717C65.1824 47.7365 64.6587 47.9013 63.9762 47.9072C63.7643 47.9131 61.9521 47.9072 61.9521 47.9072V49.2016H60.3693V44.5828H63.9526C64.5881 44.5828 65.0706 44.7122 65.3707 44.977ZM64.1998 46.6068C64.2468 46.5245 64.2704 46.4185 64.2704 46.2714C64.2704 46.1185 64.2409 45.989 64.188 45.9184C64.088 45.7713 63.8997 45.7007 63.5937 45.7007H61.9403V46.8304H63.5819C63.9114 46.8304 64.1056 46.7539 64.1998 46.6068Z" fill="#394149"/>
<path fill-rule="evenodd" clip-rule="evenodd" d="M71.649 45.0535C71.8609 45.2712 71.9609 45.5713 71.9609 45.989C71.9609 46.3479 71.8726 46.6539 71.7255 46.8598C71.5608 47.0834 71.3078 47.2717 70.9959 47.3188L72.3904 49.2016H70.637L69.4896 47.5718H68.0598V49.2016H66.4888V44.5828H70.1663C70.8959 44.5828 71.3725 44.7593 71.649 45.0535ZM70.3781 46.3774C70.4193 46.3068 70.431 46.2126 70.431 46.1361C70.431 46.0479 70.4193 45.9537 70.3781 45.8949C70.2957 45.7419 70.131 45.7007 69.8839 45.7007H68.0657V46.5421H69.9133C70.1663 46.5421 70.3193 46.495 70.3781 46.3774Z" fill="#394149"/>
<path d="M77.7616 49.2016V48.0543H74.449V47.4541H77.6263V46.3303H74.449V45.736H77.7204V44.5828H72.8956V49.2016H77.7616Z" fill="#394149"/>
<path d="M89.6952 45.7419V44.5828H84.182V45.7419H86.1295V49.2016H87.7417V45.7419H89.6952Z" fill="#394149"/>
<path d="M91.8151 44.5828V49.2016H90.197V44.5828H91.8151Z" fill="#394149"/>
<path d="M100.67 44.5828V49.2016H99.0516V44.5828H100.67Z" fill="#394149"/>
<path d="M113.76 44.5828V47.4188C113.76 48.6662 112.63 49.2664 110.918 49.2664C109.318 49.2664 108.17 48.6721 108.17 47.2717V44.5828H109.765V47.2717C109.765 47.7718 110.194 48.0837 110.983 48.0837C111.736 48.0837 112.183 47.7601 112.183 47.2776V44.5828H113.76Z" fill="#394149"/>
<path d="M120.112 47.766C120.112 46.9599 119.6 46.5362 118.406 46.4068C118.211 46.3832 117.641 46.3244 117.282 46.295C116.358 46.195 116.081 46.142 116.081 45.9066C116.081 45.6948 116.299 45.5948 117.129 45.5948C117.717 45.5948 118.047 45.7066 118.176 45.8772C118.241 45.9596 118.264 46.0243 118.27 46.089H119.965C119.947 45.9478 119.888 45.7478 119.794 45.5713C119.488 44.9829 118.753 44.5122 117.17 44.5122C115.387 44.5122 114.41 45.1417 114.41 45.9655C114.41 46.7598 114.964 47.2246 116.458 47.36L116.554 47.3685L116.714 47.3831L117.47 47.4541C118.253 47.5365 118.464 47.5894 118.464 47.8366C118.464 48.066 118.259 48.1896 117.394 48.1896C116.723 48.1896 116.329 48.0896 116.187 47.9189C116.129 47.8483 116.087 47.7424 116.076 47.6718H114.381C114.399 47.7895 114.428 47.9778 114.493 48.1308C114.781 48.778 115.534 49.2722 117.282 49.2722C119.159 49.2722 120.112 48.7427 120.112 47.766Z" fill="#394149"/>
<path fill-rule="evenodd" clip-rule="evenodd" d="M78.9666 50.9701C77.6435 50.9701 76.9475 51.5973 76.9475 52.5189C76.9475 53.559 77.6779 54.0867 78.9666 54.0867C80.3854 54.0867 80.9819 53.4749 80.9819 52.5189C80.9819 51.5476 80.3089 50.9701 78.9666 50.9701ZM78.9666 53.3181C78.2133 53.3181 77.9953 53.0083 77.9953 52.5303C77.9953 52.06 78.2324 51.7502 78.9628 51.7502C79.762 51.7502 79.9418 52.0982 79.9418 52.5303C79.9418 52.9892 79.7238 53.3181 78.9666 53.3181Z" fill="#394149"/>
<path d="M71.6085 53.1078C71.6085 52.5839 71.2758 52.3085 70.4995 52.2244C70.3733 52.2091 70.0024 52.1709 69.7691 52.1518C69.1687 52.0867 68.989 52.0523 68.989 51.8994C68.989 51.7617 69.1305 51.6967 69.6697 51.6967C70.0521 51.6967 70.2662 51.7693 70.3504 51.8802C70.3924 51.9338 70.4077 51.9758 70.4116 52.0179H71.5129C71.5014 51.9261 71.4632 51.7961 71.402 51.6814C71.2031 51.299 70.7251 50.9931 69.6964 50.9931C68.5378 50.9931 67.903 51.4022 67.903 51.9376C67.903 52.4539 68.2624 52.756 69.2337 52.8439C69.3676 52.8554 69.6888 52.886 69.8915 52.9051C70.4001 52.9586 70.5377 52.9931 70.5377 53.1537C70.5377 53.3028 70.4039 53.3831 69.8418 53.3831C69.4058 53.3831 69.1496 53.3181 69.0578 53.2072C69.0196 53.1613 68.9928 53.0925 68.9852 53.0466H67.8838C67.8953 53.1231 67.9144 53.2454 67.9565 53.3449C68.1439 53.7655 68.6334 54.0867 69.7691 54.0867C70.989 54.0867 71.6085 53.7426 71.6085 53.1078Z" fill="#394149"/>
<path fill-rule="evenodd" clip-rule="evenodd" d="M63.9731 53.1919C63.9731 53.3984 63.9157 53.6011 63.801 53.7349C63.6251 53.9491 63.2962 54.0408 62.8718 54.0408H60.2064V51.0389H62.7991C63.2121 51.0389 63.476 51.1384 63.6213 51.2875C63.7513 51.4175 63.8087 51.5896 63.8087 51.7846C63.8087 51.9797 63.7628 52.1403 63.6634 52.2588C63.583 52.3583 63.4454 52.4347 63.3001 52.4539C63.5142 52.4806 63.7169 52.5877 63.8316 52.7368C63.9272 52.8477 63.9731 53.016 63.9731 53.1919ZM62.6844 52.1403C62.7226 52.0982 62.7456 52.037 62.7456 51.9644C62.7456 51.8917 62.7226 51.8305 62.6729 51.7885C62.6194 51.7387 62.5199 51.7196 62.3746 51.7196H61.2083V52.2091H62.4014C62.5314 52.2091 62.6309 52.19 62.6844 52.1403ZM62.5123 53.3602C62.692 53.3602 62.7991 53.3372 62.8603 53.2799C62.8985 53.2416 62.9138 53.1843 62.9138 53.1116C62.9138 53.0351 62.8947 52.9778 62.8488 52.9319C62.7915 52.8822 62.692 52.8592 62.5238 52.8592H61.2083V53.3602H62.5123Z" fill="#394149"/>
<path d="M67.5739 53.2952V54.0408H64.4114V51.0389H67.5471V51.7885H65.4209V52.1747H67.4859V52.9051H65.4209V53.2952H67.5739Z" fill="#394149"/>
<path d="M75.3297 51.0389V51.7923H74.0601V54.0408H73.0124V51.7923H71.7466V51.0389H75.3297Z" fill="#394149"/>
<path d="M84.4812 51.0389V51.7999H82.443V52.2244H84.3856V52.9778H82.443V54.0408H81.4143V51.0389H84.4812Z" fill="#394149"/>
<path d="M89.6625 51.7923V51.0389H86.0794V51.7923H87.3452V54.0408H88.393V51.7923H89.6625Z" fill="#394149"/>
<path d="M93.5719 51.0389V54.0408H92.547V52.951H91.0097V54.0408H89.9849V51.0389H91.0097V52.1326H92.547V51.0389H93.5719Z" fill="#394149"/>
<path d="M97.3412 54.0408V53.2952H95.1882V52.9051H97.2532V52.1747H95.1882V51.7885H97.3144V51.0389H94.1787V54.0408H97.3412Z" fill="#394149"/>
<path d="M103.681 51.0389H104.671L103.574 54.0408H102.45C102.45 54.0408 101.849 52.2474 101.845 52.1976C101.842 52.2474 101.237 54.0408 101.237 54.0408H100.117L98.9927 51.0389H100.105C100.105 51.0389 100.756 52.928 100.756 52.9739C100.756 52.928 101.356 51.0389 101.356 51.0389H102.431C102.431 51.0389 103.035 52.928 103.035 52.9739C103.035 52.928 103.681 51.0389 103.681 51.0389Z" fill="#394149"/>
<path fill-rule="evenodd" clip-rule="evenodd" d="M106.635 50.9701C105.312 50.9701 104.616 51.5973 104.616 52.5189C104.616 53.559 105.346 54.0867 106.635 54.0867C108.054 54.0867 108.65 53.4749 108.65 52.5189C108.65 51.5476 107.977 50.9701 106.635 50.9701ZM106.635 53.3181C105.882 53.3181 105.664 53.0083 105.664 52.5303C105.664 52.06 105.901 51.7502 106.631 51.7502C107.431 51.7502 107.61 52.0982 107.61 52.5303C107.61 52.9892 107.392 53.3181 106.635 53.3181Z" fill="#394149"/>
<path fill-rule="evenodd" clip-rule="evenodd" d="M112.437 51.3449C112.574 51.4864 112.639 51.6814 112.639 51.9529C112.639 52.1862 112.582 52.385 112.486 52.5189C112.379 52.6642 112.215 52.7866 112.012 52.8171L112.918 54.0408H111.779L111.033 52.9816H110.104V54.0408H109.083V51.0389H111.473C111.947 51.0389 112.257 51.1537 112.437 51.3449ZM111.611 52.2053C111.637 52.1594 111.645 52.0982 111.645 52.0485C111.645 51.9911 111.637 51.93 111.611 51.8917C111.557 51.7923 111.45 51.7655 111.289 51.7655H110.108V52.3124H111.308C111.473 52.3124 111.572 52.2818 111.611 52.2053Z" fill="#394149"/>
<path d="M116.111 54.0408V53.2416H114.283V51.0389H113.247V54.0408H116.111Z" fill="#394149"/>
<path fill-rule="evenodd" clip-rule="evenodd" d="M120.166 52.4844C120.166 52.951 120.12 53.2034 119.983 53.4405C119.776 53.819 119.367 54.0408 118.644 54.0408H116.518V51.0389H118.621C119.34 51.0389 119.765 51.2416 119.975 51.5896C120.124 51.8229 120.166 52.0714 120.166 52.4844ZM118.449 53.3028C118.774 53.3028 118.958 53.2263 119.069 53.0581C119.138 52.9548 119.157 52.7139 119.157 52.5036C119.153 52.3124 119.13 52.1097 119.069 52.0179C118.95 51.8382 118.771 51.7732 118.457 51.7732H117.543V53.3028H118.449Z" fill="#394149"/>
<path d="M79.1449 68.6405H77.5603C77.5603 68.6405 76.5263 71.663 76.5263 71.7364C76.5263 71.663 75.5596 68.6405 75.5596 68.6405H73.8403C73.8403 68.6405 72.8797 71.663 72.8797 71.7364C72.8797 71.663 71.8396 68.6405 71.8396 68.6405H70.0591L71.8579 73.4434H73.6506C73.6506 73.4434 74.6173 70.5739 74.6234 70.4944C74.6296 70.5739 75.5901 73.4434 75.5901 73.4434H77.3889L79.1449 68.6405Z" fill="#394149"/>
<path d="M81.3133 73.4434V68.6405H79.6307V73.4434H81.3133Z" fill="#394149"/>
<path d="M87.8579 68.6405V73.4434H86.2181L83.8381 70.7697V73.4434H82.2596V68.6405H83.9849L86.2915 71.2531V68.6405H87.8579Z" fill="#394149"/>
<path d="M94.4124 73.4434V68.6405H92.8461V71.2531L90.5395 68.6405H88.8141V73.4434H90.3926V70.7697L92.7727 73.4434H94.4124Z" fill="#394149"/>
<path d="M100.429 72.2503V73.4434H95.3686V68.6405H100.386V69.8397H96.9839V70.4577H100.288V71.6263H96.9839V72.2503H100.429Z" fill="#394149"/>
<path fill-rule="evenodd" clip-rule="evenodd" d="M106.896 70.1028C106.896 69.6684 106.792 69.3564 106.572 69.13C106.284 68.8241 105.789 68.6405 105.03 68.6405H101.206V73.4434H102.84V71.7486H104.327L105.52 73.4434H107.343L105.893 71.4856C106.217 71.4366 106.48 71.2408 106.652 71.0083C106.804 70.7942 106.896 70.476 106.896 70.1028ZM105.305 70.2558C105.305 70.3353 105.293 70.4332 105.25 70.5066C105.189 70.629 105.03 70.6779 104.767 70.6779H102.846V69.803H104.736C104.993 69.803 105.165 69.8458 105.25 70.0049C105.293 70.0661 105.305 70.164 105.305 70.2558Z" fill="#394149"/>
<path d="M74.2595 60.1669L73.596 58.1247L72.9324 60.1669H70.7851L72.5223 61.429L71.8588 63.4712L73.596 62.2091L75.3331 63.4712L74.6696 61.429L76.4068 60.1669H74.2595Z" fill="#394149"/>
<path d="M81.2565 58.1234L81.9336 60.1656H84.1247L82.3521 61.4278L83.0292 63.4699L81.2565 62.2078L79.4839 63.4699L80.161 61.4278L78.3883 60.1656H80.5794L81.2565 58.1234Z" fill="#394149"/>
<path d="M89.533 60.1656L88.856 58.1234L88.1789 60.1656H85.9877L87.7604 61.4278L87.0833 63.4699L88.856 62.2078L90.6286 63.4699L89.9515 61.4278L91.7242 60.1656H89.533Z" fill="#394149"/>
<path d="M96.4558 58.1234L97.1329 60.1656H99.324L97.5514 61.4278L98.2285 63.4699L96.4558 62.2078L94.6832 63.4699L95.3603 61.4278L93.5876 60.1656H95.7788L96.4558 58.1234Z" fill="#394149"/>
<path d="M104.78 60.1656L104.116 58.1234L103.452 60.1656H101.305L103.042 61.4278L102.379 63.4699L104.116 62.2078L105.853 63.4699L105.19 61.4278L106.927 60.1656H104.78Z" fill="#394149"/>
<path d="M132.638 36.2224C133.273 34.6079 132.997 32.7512 132.412 31.1898C131.796 29.5469 130.724 27.9082 129.122 27.0441C129.042 28.7756 129.571 30.4861 130.149 32.0286C130.669 33.4159 131.306 34.8939 132.359 36.0412C132.521 36.9104 132.645 37.7772 132.732 38.64C132.383 37.7287 131.818 36.8981 131.112 36.2301C130.203 35.3696 128.85 34.7058 127.581 35.0984C127.953 36.5015 128.8 37.8467 129.804 38.7903C130.594 39.533 131.637 40.4846 132.865 40.5221C132.916 41.7922 132.887 43.0507 132.782 44.2921C132.609 43.3837 132.238 42.5283 131.701 41.8913C130.964 41.0159 129.871 39.9466 128.476 40.1255C128.552 41.5457 129.119 43.0008 129.908 44.0942C130.534 44.9631 131.362 46.0706 132.537 46.3567C132.349 47.5762 132.087 48.7755 131.754 49.9491C131.751 49.0505 131.553 48.1684 131.159 47.4609C130.604 46.4633 129.739 45.219 128.342 45.1217C128.137 46.515 128.415 48.0381 128.975 49.2495C129.422 50.2178 130.019 51.4526 131.106 51.9635C130.649 53.2265 130.109 54.4543 129.489 55.6392C129.707 54.6178 129.698 53.5415 129.441 52.573C129.086 51.2382 128.206 49.836 126.792 49.4292C126.292 50.903 126.361 52.5474 126.652 54.0452C126.891 55.2785 127.36 56.7269 128.412 57.528C127.724 58.6387 126.963 59.7046 126.132 60.7188C126.579 59.7242 126.8 58.6363 126.681 57.6404C126.508 56.19 126.101 54.6387 124.62 53.8657C123.779 55.3157 123.584 56.9424 123.513 58.5491C123.455 59.8481 123.642 61.4503 124.545 62.5071C123.552 63.5385 122.482 64.5038 121.339 65.394C122.077 64.4469 122.594 63.3356 122.703 62.2366C122.858 60.6837 122.783 58.9743 121.404 57.8346C120.226 59.0656 119.522 60.8785 119.178 62.4531C118.873 63.8452 118.555 65.4931 119.28 66.8632C117.825 67.8134 116.271 68.6505 114.628 69.3595C115.784 68.5357 116.73 67.4054 117.181 66.2384C117.772 64.709 118.137 62.8864 116.987 61.3546C115.445 62.3421 114.312 64.0268 113.419 65.5635C112.653 66.8821 111.86 68.702 112.254 70.2723C111.344 70.5809 110.411 70.8519 109.456 71.0831L109.513 71.3176C110.471 71.0855 111.408 70.8136 112.321 70.5041C112.961 72.3947 115.057 73.0195 116.752 73.2952C119.167 73.6881 122.043 72.9269 124.105 71.3932C123.016 69.8553 120.796 69.6993 119.122 69.5816L119.1 69.5801C117.266 69.4512 115.282 69.6234 113.438 70.1027C115.568 69.2916 117.562 68.2716 119.401 67.0726L119.426 67.1126C120.433 68.7488 122.457 68.8128 124.045 68.7094C126.2 68.5692 128.687 67.2593 130.126 65.4486C128.772 64.2608 126.773 64.5931 125.223 64.8506L125.215 64.852C123.486 65.1394 121.597 65.7663 120.011 66.7317C120.162 66.6128 120.309 66.4871 120.453 66.3552C121.995 65.2557 123.417 64.0258 124.708 62.6848C124.726 62.7027 124.744 62.7203 124.762 62.7378C126.018 63.9909 127.841 63.6603 129.265 63.2502C131.175 62.7002 133.155 61.0409 134.104 59.136C132.633 58.312 130.875 58.9909 129.508 59.5281C128.005 60.1181 126.416 61.0622 125.194 62.2659C125.32 62.1069 125.441 61.9407 125.555 61.7687C126.69 60.487 127.712 59.1145 128.61 57.6665L128.649 57.6906L128.659 57.6969C130.078 58.6101 131.686 57.947 132.96 57.2948C134.689 56.4099 136.079 54.4651 136.679 52.5525C135.145 52.0612 133.63 53.0255 132.452 53.7892C131.162 54.6249 129.856 55.8169 128.96 57.184C129.026 57.0491 129.088 56.9111 129.145 56.7706C130.006 55.2683 130.737 53.6913 131.329 52.0554L131.36 52.0658L131.365 52.0678C132.656 52.5565 134.093 51.7938 135.03 50.9574C136.332 49.7942 137.251 48.0059 137.466 46.2588C136.12 46.0844 134.851 47.126 133.984 48.0143C132.986 49.0375 132.089 50.2468 131.538 51.5902C131.579 51.4436 131.614 51.2947 131.643 51.1442C132.144 49.6074 132.524 48.0225 132.774 46.4023L132.812 46.4073C134.172 46.6275 135.43 45.5926 136.182 44.5881C137.24 43.1746 137.785 41.2183 137.648 39.4451C136.289 39.5403 135.253 40.8339 134.582 41.8805C133.804 43.0926 133.159 44.4645 132.877 45.8998C132.886 45.785 132.891 45.6696 132.893 45.5538C133.1 43.9045 133.174 42.2214 133.106 40.5176C134.495 40.4689 135.524 39.1793 136.054 38.0357C136.811 36.4 136.933 34.3322 136.428 32.5897C135.105 32.961 134.367 34.4783 133.932 35.6464C133.43 36.9932 133.08 38.4623 133.077 39.9227C133.005 38.6975 132.859 37.4625 132.638 36.2224Z" fill="#394149"/>
</svg>
