<svg id="logoipsum" data-name="Layer 1" xmlns="http://www.w3.org/2000/svg" viewBox="0 0 177.78 100"><title>logo-5</title><path d="M46.23,41.39h2V55.31h6v2h-8Zm14.23,0a6,6,0,1,1-6,6A6,6,0,0,1,60.46,41.39Zm0,10a4,4,0,1,0-4-4A4,4,0,0,0,60.46,51.37Zm-4,3.94h8v2h-8Zm25.6,2h-2V55.9a7.69,7.69,0,0,1-4.4,1.39,8,8,0,1,1,6-13.23l-1.47,1.31a6,6,0,1,0-4.46,10,5.77,5.77,0,0,0,4.38-2H74.71v-2l7.37,0Zm7.36-15.9a6,6,0,1,1-6,6A6,6,0,0,1,89.44,41.39Zm0,10a4,4,0,1,0-4-4A4,4,0,0,0,89.44,51.37Zm-4,3.94h8v2h-8ZM97.55,41.39h2v15.9h-2Zm4.77,0,2,0a1.47,1.47,0,0,1,.31,0,6,6,0,1,1,0,11.93h-.31v4h-2Zm2,2v7.91h.31a4,4,0,1,0,0-7.93A1.47,1.47,0,0,0,104.31,43.44Zm14.41-.85-1.48,1.17a1.94,1.94,0,0,0-3.33,1.13V45c0,.88.61,1.47,1.8,1.55,4.58.28,6.68,2.43,6.68,5.27V52a5.9,5.9,0,0,1-10.17,3.42l1.53-1.18a3.6,3.6,0,0,0,2.8,1.14A3.74,3.74,0,0,0,120.48,52v-.14c0-2.67-2.62-3.16-4.89-3.38-2.1-.2-3.61-1.51-3.61-3.4V45a3.85,3.85,0,0,1,3.93-3.56A3.74,3.74,0,0,1,118.72,42.59Zm11.5,12.72c2.49,0,4.46-2.69,4.46-6v-8h2l0,8c0,4.4-2.88,7.95-6.42,7.95s-6.42-3.55-6.42-7.95v-8h2v8C125.77,52.62,127.74,55.31,130.22,55.31Zm21.81,2h-2V47.36l-4.61,6-4.61-6v9.93h-2V41.39l6.6,8.69,6.6-8.69Z" style="fill:#394149"/><path d="M36.63,39a5.44,5.44,0,0,0-10.88,0V55.45l4.48,3.21v7.82h1.92V58.66l4.48-3.21Zm-1.92,9.2-2.56,2.56v-2.4l2.56-2.56Zm-7-2.4,2.56,2.56v2.4l-2.56-2.56Zm7-2.72-3.52,3.52L27.67,43v-2.4l3.52,3.52,3.52-3.52Zm-3.52-7.6a3.54,3.54,0,0,1,3.4,2.61l-3.4,3.39-3.4-3.39A3.54,3.54,0,0,1,31.19,35.44Zm-3.52,19V50.88l2.56,2.56V56.3Zm4.48,1.83V53.44l2.56-2.56v3.59Z" style="fill:#394149"/></svg>