<svg width="177" height="100" viewBox="0 0 177 100" fill="none" xmlns="http://www.w3.org/2000/svg">
<path fill-rule="evenodd" clip-rule="evenodd" d="M47 21H130.726C146.742 21 159.726 33.9837 159.726 50C159.726 66.0163 146.742 79 130.726 79H47C30.9837 79 18 66.0163 18 50C18 33.9837 30.9837 21 47 21ZM47 23.8065C32.5337 23.8065 20.8065 35.5337 20.8065 50C20.8065 64.4663 32.5337 76.1936 47 76.1936H130.726C145.192 76.1936 156.919 64.4663 156.919 50C156.919 35.5337 145.192 23.8065 130.726 23.8065H47Z" fill="#394149"/>
<path fill-rule="evenodd" clip-rule="evenodd" d="M137.597 65.1597C139.703 61.4209 141.094 56.0668 141.094 50C141.094 43.9332 139.703 38.5792 137.597 34.8403C135.441 31.0143 132.902 29.4194 130.726 29.4194C128.55 29.4194 126.01 31.0143 123.855 34.8403C121.749 38.5792 120.358 43.9332 120.358 50C120.358 56.0668 121.749 61.4209 123.855 65.1597C126.01 68.9858 128.55 70.5807 130.726 70.5807C132.902 70.5807 135.441 68.9858 137.597 65.1597ZM130.726 73.3871C138.002 73.3871 143.901 62.9164 143.901 50C143.901 37.0837 138.002 26.6129 130.726 26.6129C123.45 26.6129 117.551 37.0837 117.551 50C117.551 62.9164 123.45 73.3871 130.726 73.3871Z" fill="#394149"/>
<path fill-rule="evenodd" clip-rule="evenodd" d="M129.323 71.2043L129.323 28.328L132.129 28.328L132.129 71.2043L129.323 71.2043Z" fill="#394149"/>
<path d="M88.7299 39.4544C89.3344 39.4459 89.8484 39.3329 89.84 38.7115V38.6183C89.8484 37.9997 89.3344 37.8867 88.7299 37.8783C88.1227 37.8867 87.6086 37.9997 87.6171 38.6183V38.7115C87.6086 39.3329 88.1227 39.4459 88.7299 39.4544Z" fill="#394149"/>
<path d="M66.3058 37.8811C66.4866 37.8811 66.6306 38.0251 66.6306 38.2059C66.6306 38.2935 66.5995 38.3697 66.5346 38.4347C66.4724 38.4968 66.3962 38.5279 66.3058 38.5279H64.5009V37.8811H66.3058Z" fill="#394149"/>
<path d="M76.7905 37.8726L77.3103 38.994H76.268L76.7905 37.8726Z" fill="#394149"/>
<path d="M100.5 38.994L99.9801 37.8726L99.4576 38.994H100.5Z" fill="#394149"/>
<path d="M63.0566 61.4855L62.2884 59.8279L61.5159 61.4855H63.0566Z" fill="#394149"/>
<path d="M80.297 62.0367C80.8648 62.0367 81.1863 61.5732 81.1863 61.0095C81.1863 60.4417 80.8648 59.9824 80.297 59.9824H77.9003V62.0367H80.297Z" fill="#394149"/>
<path d="M87.2574 59.8279L88.0257 61.4855H86.4849L87.2574 59.8279Z" fill="#394149"/>
<path d="M97.0738 60.3206C97.0738 60.0534 96.8609 59.8404 96.5937 59.8404H93.9256V60.7966H96.5937C96.7273 60.7966 96.84 60.7507 96.9319 60.6588C97.0279 60.5628 97.0738 60.45 97.0738 60.3206Z" fill="#394149"/>
<path d="M105.421 61.0095C105.421 61.5732 105.099 62.0367 104.531 62.0367H102.134V59.9824H104.531C105.099 59.9824 105.421 60.4417 105.421 61.0095Z" fill="#394149"/>
<path d="M50.1274 44.118L52.912 50.5472L55.8331 44.118H60.4605V54.8333H56.9934V49.0457L54.4545 54.8333H51.3422L48.8306 49.0457V54.8333H45.3499V44.118H50.1274Z" fill="#394149"/>
<path d="M74.6667 54.8333V52.1715H66.9817V50.7792H74.3528V48.1721H66.9817V46.7934H74.5712V44.118H63.3781V54.8333H74.6667Z" fill="#394149"/>
<path d="M82.8445 54.9971C80.5649 54.9971 78.6676 54.3146 77.6029 52.9359C76.975 52.1306 76.5928 50.9157 76.5928 49.4961C76.5928 48.213 76.9204 47.0664 77.6302 46.1519C78.7085 44.8141 80.6605 43.9269 83.568 43.9269C86.9122 43.9269 88.8778 44.9506 89.7241 46.6706C89.8447 46.9202 89.9326 47.2297 89.9846 47.5098C90.015 47.6737 90.0331 47.8277 90.0381 47.9537H86.5027C86.4618 47.7626 86.2707 47.4759 86.025 47.2712C85.6428 46.9299 84.8238 46.6569 83.6362 46.6569C82.3121 46.6569 81.4112 46.9163 80.8789 47.5169C80.5103 47.94 80.3192 48.5816 80.3192 49.5234C80.3192 50.4243 80.5103 51.0249 80.8379 51.4481C81.3293 52.0214 82.2439 52.3899 83.6635 52.3899C85.0285 52.3899 86.0796 51.9804 86.4754 51.5163C86.5436 51.4376 86.6058 51.3388 86.658 51.2368C86.7417 51.0735 86.7999 50.9021 86.8167 50.7929H83.0083V48.486H90.1336V54.8333H87.1989L87.1033 53.7959C86.975 53.9021 86.8358 54.0031 86.6854 54.098C85.8112 54.6494 84.5564 54.9971 82.8445 54.9971Z" fill="#394149"/>
<path d="M80.7631 49.5234C80.7631 48.6327 80.9452 48.1176 81.2124 47.8099C81.6143 47.3576 82.3476 47.1008 83.6362 47.1008C84.782 47.1008 85.4676 47.3686 85.7293 47.6023L85.735 47.6073L85.7408 47.6122C85.8308 47.6872 85.9131 47.7796 85.9753 47.8697C86.0368 47.9587 86.0614 48.0205 86.0675 48.0421H82.5644V51.2368H86.1303C86.0026 51.3811 85.7285 51.5612 85.293 51.7059C84.8595 51.8499 84.3032 51.946 83.6635 51.946C82.3147 51.946 81.5561 51.5969 81.1822 51.1675C80.9378 50.8471 80.7631 50.3557 80.7631 49.5234Z" fill="#394149"/>
<path d="M98.3902 50.0077L99.4072 48.0661L100.368 50.0077H98.3902Z" fill="#394149"/>
<path fill-rule="evenodd" clip-rule="evenodd" d="M102.243 52.854L103.185 54.8333H107.13L101.724 44.118H97.3153L91.5959 54.8333H95.4589L96.4553 52.854H102.243ZM97.6565 50.4516L99.0079 47.8718L99.4174 46.889L99.7996 47.8581L101.083 50.4516H97.6565Z" fill="#394149"/>
<path fill-rule="evenodd" clip-rule="evenodd" d="M47 73.3871C39.6324 73.3871 33.0605 69.9802 28.7738 64.656H41.0752V63.0968H27.6212C25.6141 60.1328 24.2692 56.6839 23.7988 52.9624H41.0752V51.4033H23.6543C23.6268 50.939 23.6129 50.4711 23.6129 50C23.6129 46.9134 24.2108 43.9666 25.2972 41.2688H41.0752V39.7097H25.9926C27.6454 36.3419 30.0841 33.4297 33.0698 31.2124H116.796C111.057 35.4742 107.339 42.3028 107.339 50C107.339 54.8526 108.817 59.3601 111.347 63.0968H109.911V64.6559H112.499C116.741 69.9238 123.219 73.3147 130.492 73.3859V73.3871H47ZM86.137 38.5279C86.1313 37.0902 87.3007 36.6778 88.7299 36.675C90.1591 36.675 91.32 37.093 91.32 38.5279V38.8047C91.3257 40.2396 90.1563 40.6548 88.7299 40.6576C87.3007 40.6548 86.1313 40.2396 86.137 38.8047V38.5279ZM44.3279 40.5644V36.7682H45.808V40.5644H44.3279ZM48.6297 36.7682L50.2962 38.7793V36.7682H51.7791V40.5644H50.1126L48.0733 38.2455V40.5644H46.5932V36.7682H48.6297ZM55.5329 40.5701V37.9771H57.2926V36.7739H52.2932V37.9771H54.0529V40.5701H55.5329ZM62.2328 40.5701H57.7898V36.7739H62.2328V37.7455H59.2698V38.2313H62.2328V39.1098H59.2698V39.5956H62.2328V40.5701ZM63.0208 36.771V40.5672H64.5009V39.6408H65.8228L66.5374 40.5672H68.1135L67.2859 39.5024C67.5345 39.3866 67.735 39.2114 67.8847 38.9827C68.0372 38.751 68.1135 38.4912 68.1135 38.2059C68.1248 37.4207 67.461 36.7626 66.6786 36.771H63.0208ZM70.6104 36.7682L72.2769 38.7793V36.7682H73.7598V40.5644H72.0933L70.054 38.2455V40.5644H68.5739V36.7682H70.6104ZM73.8728 40.5701H75.5393L75.8387 39.9204H77.7396L78.039 40.5701H79.7055L77.669 36.7739H75.9093L73.8728 40.5701ZM81.9651 37.9771V40.5701H80.4851V37.9771H78.7254V36.7739H83.7248V37.9771H81.9651ZM84.2219 36.7682V40.5644H85.702V36.7682H84.2219ZM95.4665 38.7793L93.8 36.7682H91.7635V40.5644H93.2436V38.2455L95.2829 40.5644H96.9494V36.7682H95.4665V38.7793ZM98.7288 40.5701H97.0624L99.0989 36.7739H100.859L102.895 40.5701H101.229L100.929 39.9204H99.0283L98.7288 40.5701ZM103.011 36.7682V40.5644H107.454V39.3611H104.491V36.7682H103.011ZM46.6472 60.045C46.6472 59.5983 47.4823 59.498 48.1629 59.498C48.8477 59.498 49.428 59.6024 49.6786 60.045H51.9709C51.7621 58.2913 50.1295 58.07 48.1629 58.0575C46.1921 58.0575 44.3549 58.4417 44.3549 60.045C44.3507 61.4451 46.542 61.5561 48.1072 61.6354L48.117 61.6359C48.998 61.6776 49.6786 61.7152 49.6786 61.9615C49.6786 62.3958 48.8435 62.5085 48.1629 62.5085C47.4781 62.5085 46.8977 62.3958 46.6472 61.9615H44.3549C44.5637 63.7027 46.1963 63.9407 48.1629 63.9449C50.1337 63.9449 51.9709 63.5649 51.9709 61.9615C51.975 60.5573 49.7837 60.4463 48.2185 60.367L48.2088 60.3665C47.3278 60.3248 46.6472 60.2914 46.6472 60.045ZM56.8269 63.8154V59.9824H59.4282V58.2037H52.0377V59.9824H54.639V63.8154H56.8269ZM60.4386 63.8154H57.9751L60.9856 58.2037H63.5869L66.5974 63.8154H64.1339L63.6913 62.8551H60.8812L60.4386 63.8154ZM72.2426 61.1682L69.7791 58.1953H66.7686V63.8071H68.9565V60.3791L71.9712 63.8071H74.4347V58.1953H72.2426V61.1682ZM75.7123 63.8154V58.2037H80.7062C82.2469 58.1828 83.391 59.4772 83.3784 61.0095C83.391 62.5336 82.2469 63.8363 80.7062 63.8154H75.7123ZM82.9442 63.8154H85.4077L85.8503 62.8551H88.6603L89.1029 63.8154H91.5664L88.556 58.2037H85.9547L82.9442 63.8154ZM91.7376 63.8113V58.1995H97.1448C98.3014 58.187 99.2826 59.1598 99.2659 60.3206C99.2659 60.7423 99.1532 61.1265 98.9277 61.4688C98.7064 61.8071 98.41 62.0659 98.0425 62.2371L99.2659 63.8113H96.936L95.8797 62.4417H93.9256V63.8113H91.7376ZM99.9465 58.2037V63.8154H104.94C106.481 63.8363 107.625 62.5336 107.613 61.0095C107.625 59.4772 106.481 58.1828 104.94 58.2037H99.9465ZM56.5495 55.2772H60.9044V43.6741H55.5472L52.9217 49.4527L50.4189 43.6741H44.906V55.2772H49.2745V51.1837L51.051 55.2772H54.7445L56.5495 51.1626V55.2772ZM62.9342 55.2772H75.1106V51.7276H67.4256V51.2231H74.7967V47.7282H67.4256V47.2373H75.0151V43.6741H62.9342V55.2772ZM86.794 55.2772H90.5776V48.0421H90.4859L90.4816 47.9359C90.466 47.5449 90.3459 46.9374 90.1239 46.4776L90.1232 46.4761L90.1224 46.4746C89.1676 44.534 86.9879 43.483 83.568 43.483C80.5758 43.483 78.474 44.3977 77.2846 45.8733L77.282 45.8764L77.2795 45.8797C76.4965 46.8885 76.1489 48.1374 76.1489 49.4961C76.1489 50.9874 76.5492 52.3061 77.2522 53.2082C78.4339 54.7375 80.4923 55.441 82.8445 55.441C84.498 55.441 85.782 55.127 86.7305 54.5883L86.794 55.2772ZM95.7324 55.2772L96.7288 53.2979H101.963L102.904 55.2772H107.851L101.998 43.6741H97.049L90.8558 55.2772H95.7324ZM107.806 69.5672L44.2715 69.5672V68.008L107.806 68.008V69.5672Z" fill="#394149"/>
<path d="M119.186 29.6532C122.528 27.754 126.383 26.6543 130.492 26.614V26.6129H47C42.8037 26.6129 38.8655 27.718 35.4606 29.6532H119.186Z" fill="#394149"/>
<path d="M130.726 70.5806C142.092 70.5806 151.306 61.3663 151.306 50C151.306 38.6336 142.092 29.4193 130.726 29.4193C123.108 29.4193 116.457 33.5581 112.898 39.7097H109.911V41.2688H112.084C110.84 43.9194 110.145 46.8785 110.145 50C110.145 54.9754 111.911 59.5384 114.849 63.0968H111.347C108.817 59.3601 107.339 54.8526 107.339 50C107.339 37.0836 117.809 26.6129 130.726 26.6129C143.642 26.6129 154.113 37.0836 154.113 50C154.113 62.9163 143.642 73.3871 130.726 73.3871C123.358 73.3871 116.786 69.9802 112.499 64.6559H116.277C119.993 68.3196 125.095 70.5806 130.726 70.5806Z" fill="#394149"/>
<path d="M136.905 63.0967L112.562 63.0967V60.2903L138.003 60.2903C137.678 61.2959 137.309 62.2346 136.905 63.0967Z" fill="#394149"/>
<path d="M138.614 63.0967L149.046 63.0967V60.2903L139.638 60.2903C139.336 61.2822 138.992 62.2203 138.614 63.0967Z" fill="#394149"/>
<path d="M139.509 51.4032H108.742V48.5967H139.509C139.526 49.0592 139.535 49.5271 139.535 50C139.535 50.4729 139.526 50.9408 139.509 51.4032Z" fill="#394149"/>
<path d="M141.069 51.4032H152.749V48.5967H141.069C141.086 49.0599 141.094 49.5278 141.094 50C141.094 50.4722 141.086 50.9401 141.069 51.4032Z" fill="#394149"/>
<path d="M138.004 39.7097L112.562 39.7097V36.9033L136.905 36.9033C137.309 37.7654 137.678 38.7041 138.004 39.7097Z" fill="#394149"/>
<path d="M139.638 39.7097L149.046 39.7097V36.9033L138.614 36.9033C138.992 37.7797 139.336 38.7178 139.638 39.7097Z" fill="#394149"/>
</svg>
