<svg id="logoipsum" data-name="logoipsum" xmlns="http://www.w3.org/2000/svg" viewBox="0 0 177.78 100"><title>logoipsum-4</title><path d="M61.51,44.26h3.21v13H61.51ZM66,52.37c0-3.22,2-5.15,5-5.15s5,1.93,5,5.15-1.93,5.17-5,5.17S66,55.66,66,52.37Zm6.82,0c0-1.77-.69-2.81-1.79-2.81s-1.78,1-1.78,2.81.68,2.8,1.78,2.8S72.84,54.18,72.84,52.38Zm4.46,5.56h3.1a1.66,1.66,0,0,0,1.74,1c1.23,0,1.87-.66,1.87-1.64v-1.8H84a3.07,3.07,0,0,1-3,1.75c-2.35,0-3.91-1.79-3.91-4.87s1.49-5,4-5a3.07,3.07,0,0,1,3,1.89H84V47.45h3.18v9.74c0,2.35-2.08,3.82-5.14,3.82C79.26,61,77.48,59.73,77.3,57.94ZM84,52.37c0-1.57-.72-2.56-1.86-2.56s-1.84,1-1.84,2.56.69,2.48,1.84,2.48S84,54,84,52.37Zm4.45,0c0-3.22,2-5.15,5-5.15s5,1.93,5,5.15-1.94,5.17-5,5.17S88.47,55.66,88.47,52.37Zm6.82,0c0-1.77-.7-2.81-1.79-2.81s-1.78,1-1.78,2.81.68,2.8,1.78,2.8S95.29,54.18,95.29,52.38Zm4.48-7.29a1.64,1.64,0,1,1,1.64,1.57A1.58,1.58,0,0,1,99.77,45.09Zm0,2.36H103V57.3h-3.2Zm14.94,4.93c0,3.21-1.44,5.07-3.89,5.07a3.07,3.07,0,0,1-3-1.83h-.06v4.86h-3.21v-13h3.19v1.76h.06a3.09,3.09,0,0,1,3-1.9C113.3,47.31,114.75,49.16,114.75,52.38Zm-3.27,0c0-1.56-.73-2.57-1.86-2.57s-1.84,1-1.85,2.57.72,2.56,1.85,2.56S111.48,54,111.48,52.38Zm8.75-5.16c2.69,0,4.36,1.27,4.38,3.31h-2.93c0-.71-.59-1.15-1.47-1.15s-1.3.34-1.3.85.37.67,1.11.82l2.06.42c2,.42,2.8,1.22,2.8,2.71,0,2-1.85,3.36-4.6,3.36s-4.54-1.32-4.67-3.33h3.11c.09.73.67,1.16,1.61,1.16s1.38-.3,1.38-.83-.3-.62-1.07-.78l-1.86-.39c-1.93-.41-2.94-1.42-2.94-2.93C115.84,48.47,117.52,47.22,120.23,47.22Zm15.4,10.08h-3.11V55.44h-.06a2.82,2.82,0,0,1-2.87,2.05A3.43,3.43,0,0,1,126,53.78V47.45h3.21v5.64c0,1.16.61,1.79,1.61,1.79A1.64,1.64,0,0,0,132.43,53V47.45h3.2Zm1.55-9.85h3.12v1.9h.07a2.86,2.86,0,0,1,2.81-2.08,2.56,2.56,0,0,1,2.74,2.09H146a3,3,0,0,1,3-2.09,3.12,3.12,0,0,1,3.23,3.35V57.3H149V51.43c0-1-.47-1.56-1.38-1.56a1.4,1.4,0,0,0-1.41,1.59V57.3h-3.06V51.4c0-1-.49-1.53-1.37-1.53a1.43,1.43,0,0,0-1.43,1.61V57.3h-3.21Z" style="fill:#394149"/><path d="M55.16,45.11A9.88,9.88,0,0,0,38,38.43H25.52V64.77H51.87V52.46A9.87,9.87,0,0,0,55.16,45.11Zm-5.07,0a4.82,4.82,0,1,1-4.82-4.81A4.82,4.82,0,0,1,50.09,45.11ZM46.8,59.7H30.59V43.5h4.94a9.55,9.55,0,0,0-.15,1.61A9.9,9.9,0,0,0,45.27,55a9.67,9.67,0,0,0,1.53-.13Z" style="fill:#394149"/></svg>
