<svg width="177" height="100" viewBox="0 0 177 100" fill="none" xmlns="http://www.w3.org/2000/svg">
<path d="M88.5 38.75C88.5 44.9632 83.4632 50 77.25 50H66V38.75C66 32.5368 71.0368 27.5 77.25 27.5C83.4632 27.5 88.5 32.5368 88.5 38.75Z" fill="#17CF97"/>
<path d="M88.5 61.25C88.5 55.0368 93.5368 50 99.75 50H111V61.25C111 67.4632 105.963 72.5 99.75 72.5C93.5368 72.5 88.5 67.4632 88.5 61.25Z" fill="#17CF97"/>
<path d="M66 61.25C66 67.4632 71.0368 72.5 77.25 72.5H88.5V61.25C88.5 55.0368 83.4632 50 77.25 50C71.0368 50 66 55.0368 66 61.25Z" fill="#17CF97"/>
<path d="M111 38.75C111 32.5368 105.963 27.5 99.75 27.5H88.5V38.75C88.5 44.9632 93.5368 50 99.75 50C105.963 50 111 44.9632 111 38.75Z" fill="#17CF97"/>
</svg>
