<svg width="177" height="100" viewBox="0 0 177 100" fill="none" xmlns="http://www.w3.org/2000/svg">
<path fill-rule="evenodd" clip-rule="evenodd" d="M89.6757 34.4075C91.0635 33.0198 93.3135 33.0198 94.7013 34.4075C96.0891 35.7953 96.0891 38.0453 94.7013 39.4331L86.2404 47.894C83.8112 44.6384 84.0751 40.0082 87.0321 37.0512L89.6757 34.4075Z" fill="#4F9E91"/>
<path fill-rule="evenodd" clip-rule="evenodd" d="M101.771 53.4967C103.159 54.8844 103.159 57.1345 101.771 58.5222C100.384 59.91 98.1336 59.91 96.7458 58.5222L88.2849 50.0614C91.5405 47.6322 96.1707 47.896 99.1277 50.853L101.771 53.4967Z" fill="#EBE1C5"/>
<path fill-rule="evenodd" clip-rule="evenodd" d="M82.6821 65.5924C81.2944 66.9802 79.0443 66.9802 77.6566 65.5924C76.2688 64.2046 76.2688 61.9546 77.6566 60.5668L86.1174 52.106C88.5466 55.3616 88.2828 59.9918 85.3258 62.9487L82.6821 65.5924Z" fill="#EBCC6E"/>
<path fill-rule="evenodd" clip-rule="evenodd" d="M70.5866 46.5032C69.1988 45.1154 69.1988 42.8654 70.5866 41.4776C71.9744 40.0898 74.2244 40.0898 75.6122 41.4776L84.0731 49.9385C80.8175 52.3677 76.1872 52.1038 73.2303 49.1469L70.5866 46.5032Z" fill="#ED834E"/>
<path fill-rule="evenodd" clip-rule="evenodd" d="M87.7848 64.5562C89.8311 62.281 90.7822 59.3697 90.6379 56.5033L94.7013 60.5667C94.7114 60.5768 94.7216 60.5869 94.7318 60.597L94.7318 63.498C94.7318 65.4606 93.1408 67.0516 91.1782 67.0516C89.5841 67.0516 88.2352 66.002 87.7848 64.5562Z" fill="#ED834E"/>
<path fill-rule="evenodd" clip-rule="evenodd" d="M71.6227 51.6058C73.8978 53.6522 76.8091 54.6033 79.6755 54.459L75.6122 58.5224C75.602 58.5325 75.5919 58.5427 75.5819 58.5528H72.6809C70.7183 58.5529 69.1273 56.9618 69.1273 54.9992C69.1273 53.4052 70.1769 52.0562 71.6227 51.6058Z" fill="#4F9E91"/>
<path fill-rule="evenodd" clip-rule="evenodd" d="M100.735 48.3942C98.4601 46.3478 95.5488 45.3967 92.6824 45.5409L96.7457 41.4776C96.7559 41.4675 96.7659 41.4573 96.776 41.4471L99.6771 41.4471C101.64 41.4471 103.231 43.0382 103.231 45.0008C103.231 46.5949 102.181 47.9438 100.735 48.3942Z" fill="#EBCC6E"/>
<path fill-rule="evenodd" clip-rule="evenodd" d="M84.5731 35.4437C82.5267 37.7188 81.5757 40.6301 81.7199 43.4966L77.6566 39.4332C77.6464 39.4231 77.6363 39.413 77.6261 39.4029V36.5019C77.6261 34.5393 79.2171 32.9482 81.1797 32.9482C82.7738 32.9482 84.1227 33.9979 84.5731 35.4437Z" fill="#EBE1C5"/>
<path fill-rule="evenodd" clip-rule="evenodd" d="M81.1797 30.057C77.6203 30.057 74.7348 32.9425 74.7348 36.5019V37.7554C72.5934 37.1959 70.2202 37.7551 68.5421 39.4332C66.0252 41.9501 66.0252 46.0308 68.5421 48.5477L69.4284 49.434C67.5186 50.5526 66.236 52.6261 66.236 54.9992C66.236 58.5586 69.1215 61.4441 72.6809 61.4441H73.9343C73.3748 63.5855 73.934 65.9587 75.6121 67.6367C78.129 70.1536 82.2097 70.1536 84.7266 67.6367L87.3702 64.9931C89.7023 62.661 90.7915 59.5566 90.6378 56.5032L94.7013 60.5666C97.2182 63.0835 101.299 63.0835 103.816 60.5666C106.333 58.0497 106.333 53.969 103.816 51.4522L102.93 50.566C104.839 49.4474 106.122 47.3739 106.122 45.0008C106.122 41.4414 103.236 38.5559 99.677 38.5559H98.4235C98.9831 36.4144 98.4238 34.0412 96.7457 32.3631C94.2289 29.8462 90.1482 29.8462 87.6313 32.3631L84.9876 35.0068C82.6555 37.3389 81.5663 40.4432 81.72 43.4966L77.6566 39.4332C77.6464 39.4231 77.6363 39.413 77.6261 39.4029V36.5019C77.6261 34.5393 79.2171 32.9483 81.1797 32.9483C82.7738 32.9483 84.1227 33.9979 84.5731 35.4437C84.7066 35.2953 84.8447 35.1496 84.9875 35.0068L86.7449 33.2494C85.6263 31.3396 83.5528 30.057 81.1797 30.057ZM96.776 41.4472C96.7659 41.4573 96.7559 41.4675 96.7457 41.4776L92.6824 45.5409C95.5489 45.3967 98.4601 46.3477 100.735 48.3942C102.181 47.9438 103.231 46.5948 103.231 45.0008C103.231 43.0382 101.64 41.4472 99.677 41.4472H96.776ZM75.5817 58.5528C75.5918 58.5426 75.6019 58.5324 75.6121 58.5223L79.6754 54.4589C76.809 54.6032 73.8978 53.6521 71.6227 51.6058C70.1769 52.0562 69.1272 53.4051 69.1272 54.9992C69.1272 56.9618 70.7183 58.5528 72.6809 58.5528H75.5817ZM71.5119 51.5048C71.4016 51.4029 71.2929 51.2984 71.1858 51.1913V51.1914C71.2929 51.2985 71.4016 51.4029 71.5119 51.5048ZM91.1782 69.943C88.805 69.943 86.7315 68.6603 85.6129 66.7505L87.3702 64.9931C87.5131 64.8503 87.6512 64.7046 87.7847 64.5562C88.2351 66.002 89.584 67.0517 91.1782 67.0517C93.1408 67.0517 94.7318 65.4607 94.7318 63.4981V60.5971C95.5646 61.419 96.5656 61.9682 97.6231 62.2445V63.4981C97.6231 67.0575 94.7376 69.943 91.1782 69.943ZM94.7013 34.4075C93.3135 33.0198 91.0635 33.0198 89.6757 34.4075L87.032 37.0512C84.0751 40.0082 83.8112 44.6384 86.2404 47.894L94.7013 39.4331C96.0891 38.0453 96.0891 35.7953 94.7013 34.4075ZM101.771 58.5222C103.159 57.1344 103.159 54.8844 101.771 53.4966L99.1276 50.8529C96.1707 47.896 91.5404 47.6321 88.2848 50.0613L96.7457 58.5222C98.1335 59.91 100.384 59.91 101.771 58.5222ZM82.6821 65.5923C81.2943 66.9801 79.0443 66.9801 77.6565 65.5923C76.2688 64.2045 76.2688 61.9545 77.6565 60.5667L86.1174 52.1058C88.5466 55.3614 88.2827 59.9917 85.3258 62.9486L82.6821 65.5923ZM70.5865 41.4776C69.1988 42.8654 69.1988 45.1154 70.5865 46.5032L73.2302 49.1469C76.1872 52.1038 80.8174 52.3677 84.073 49.9385L75.6121 41.4776C74.2243 40.0899 71.9743 40.0899 70.5865 41.4776Z" fill="#3D3A2C"/>
<path d="M18.5326 43.0898H21.6932V52.911H27.1216V55.5716H18.5326V43.0898Z" fill="#3D3A2C"/>
<path d="M32.8602 55.8395C31.8007 55.8395 30.8721 55.649 30.0745 55.2681C29.2769 54.8752 28.6579 54.3395 28.2174 53.661C27.7889 52.9705 27.5746 52.1789 27.5746 51.286C27.5746 50.3932 27.7889 49.6075 28.2174 48.929C28.6579 48.2385 29.2769 47.7028 30.0745 47.3219C30.8721 46.929 31.8007 46.7326 32.8602 46.7326C33.9197 46.7326 34.8482 46.929 35.6458 47.3219C36.4434 47.7028 37.0565 48.2385 37.485 48.929C37.9255 49.6075 38.1457 50.3932 38.1457 51.286C38.1457 52.1789 37.9255 52.9705 37.485 53.661C37.0565 54.3395 36.4434 54.8752 35.6458 55.2681C34.8482 55.649 33.9197 55.8395 32.8602 55.8395ZM32.8602 53.3931C33.4911 53.3931 33.9911 53.2086 34.3601 52.8396C34.7411 52.4586 34.9315 51.9408 34.9315 51.286C34.9315 50.6313 34.7411 50.1194 34.3601 49.7504C33.9911 49.3694 33.4911 49.179 32.8602 49.179C32.2292 49.179 31.7233 49.3694 31.3424 49.7504C30.9733 50.1194 30.7888 50.6313 30.7888 51.286C30.7888 51.9408 30.9733 52.4586 31.3424 52.8396C31.7233 53.2086 32.2292 53.3931 32.8602 53.3931Z" fill="#3D3A2C"/>
<path d="M44.0492 59.6787C43.4778 59.6787 42.9004 59.6251 42.3171 59.518C41.7457 59.4108 41.2516 59.268 40.835 59.0894V56.9109C41.7754 57.3156 42.8468 57.518 44.0492 57.518C44.9182 57.518 45.5432 57.3394 45.9241 56.9823C46.317 56.6252 46.5134 56.1014 46.5134 55.4109V54.8931C46.1682 55.1907 45.7396 55.4228 45.2277 55.5895C44.7277 55.7562 44.192 55.8395 43.6206 55.8395C42.7159 55.8395 41.9183 55.649 41.2278 55.2681C40.5374 54.8871 39.9957 54.3514 39.6029 53.661C39.2219 52.9705 39.0315 52.1789 39.0315 51.286C39.0315 50.3813 39.2219 49.5837 39.6029 48.8933C39.9838 48.2028 40.5195 47.673 41.21 47.304C41.9004 46.9231 42.6921 46.7326 43.5849 46.7326C44.8111 46.7326 45.8229 47.1076 46.6205 47.8576V47.0004H49.6562V54.9824C49.6562 56.4704 49.1978 57.6252 48.2812 58.4466C47.3765 59.268 45.9658 59.6787 44.0492 59.6787ZM44.4063 53.411C44.8944 53.411 45.3289 53.286 45.7098 53.036C46.0908 52.786 46.3586 52.4527 46.5134 52.036V50.5361C46.3467 50.1194 46.0729 49.792 45.692 49.5539C45.311 49.304 44.8825 49.179 44.4063 49.179C43.7635 49.179 43.2456 49.3694 42.8528 49.7504C42.4599 50.1194 42.2635 50.6253 42.2635 51.2682C42.2635 51.9229 42.4599 52.4467 42.8528 52.8396C43.2456 53.2205 43.7635 53.411 44.4063 53.411Z" fill="#3D3A2C"/>
<path d="M55.739 55.8395C54.6795 55.8395 53.751 55.649 52.9534 55.2681C52.1558 54.8752 51.5367 54.3395 51.0963 53.661C50.6677 52.9705 50.4534 52.1789 50.4534 51.286C50.4534 50.3932 50.6677 49.6075 51.0963 48.929C51.5367 48.2385 52.1558 47.7028 52.9534 47.3219C53.751 46.929 54.6795 46.7326 55.739 46.7326C56.7985 46.7326 57.727 46.929 58.5246 47.3219C59.3222 47.7028 59.9353 48.2385 60.3639 48.929C60.8043 49.6075 61.0246 50.3932 61.0246 51.286C61.0246 52.1789 60.8043 52.9705 60.3639 53.661C59.9353 54.3395 59.3222 54.8752 58.5246 55.2681C57.727 55.649 56.7985 55.8395 55.739 55.8395ZM55.739 53.3931C56.3699 53.3931 56.8699 53.2086 57.239 52.8396C57.6199 52.4586 57.8104 51.9408 57.8104 51.286C57.8104 50.6313 57.6199 50.1194 57.239 49.7504C56.8699 49.3694 56.3699 49.179 55.739 49.179C55.1081 49.179 54.6021 49.3694 54.2212 49.7504C53.8521 50.1194 53.6676 50.6313 53.6676 51.286C53.6676 51.9408 53.8521 52.4586 54.2212 52.8396C54.6021 53.2086 55.1081 53.3931 55.739 53.3931Z" fill="#3D3A2C"/>
<path d="M111.432 43.0898H114.593V55.5716H111.432V43.0898Z" fill="#3D3A2C"/>
<path d="M116.193 47.0004H119.229V47.8576C120.026 47.1076 121.038 46.7326 122.264 46.7326C123.157 46.7326 123.949 46.9231 124.639 47.304C125.33 47.673 125.865 48.2028 126.246 48.8933C126.627 49.5718 126.818 50.3635 126.818 51.2682C126.818 52.161 126.627 52.9586 126.246 53.661C125.865 54.3514 125.33 54.8871 124.639 55.2681C123.961 55.649 123.169 55.8395 122.264 55.8395C121.693 55.8395 121.145 55.7502 120.622 55.5716C120.11 55.405 119.681 55.1728 119.336 54.8752V59.4822H116.193V47.0004ZM121.443 53.3931C122.086 53.3931 122.604 53.2027 122.996 52.8217C123.389 52.4408 123.586 51.9229 123.586 51.2682C123.586 50.6134 123.389 50.1016 122.996 49.7325C122.604 49.3516 122.086 49.1611 121.443 49.1611C120.967 49.1611 120.538 49.2861 120.157 49.5361C119.776 49.7742 119.503 50.1016 119.336 50.5182V52.036C119.503 52.4527 119.776 52.786 120.157 53.036C120.538 53.2741 120.967 53.3931 121.443 53.3931Z" fill="#3D3A2C"/>
<path d="M131.503 55.8395C130.813 55.8395 130.093 55.7681 129.343 55.6252C128.593 55.4943 127.997 55.3038 127.557 55.0538V52.7503C128.045 53.036 128.628 53.2741 129.307 53.4646C129.997 53.6431 130.628 53.7324 131.2 53.7324C131.616 53.7324 131.92 53.7026 132.11 53.6431C132.301 53.5836 132.396 53.4646 132.396 53.286C132.396 53.1431 132.331 53.03 132.2 52.9467C132.081 52.8515 131.854 52.7562 131.521 52.661C131.2 52.5539 130.825 52.4408 130.396 52.3217C129.67 52.1074 129.099 51.8872 128.682 51.661C128.265 51.4348 127.956 51.1491 127.753 50.8039C127.551 50.4587 127.45 50.0242 127.45 49.5004C127.45 48.5718 127.813 47.8814 128.539 47.429C129.277 46.9647 130.283 46.7326 131.557 46.7326C132.176 46.7326 132.825 46.7981 133.503 46.929C134.194 47.06 134.711 47.2326 135.057 47.4469V49.7147C134.7 49.4766 134.223 49.2801 133.628 49.1254C133.045 48.9706 132.497 48.8933 131.985 48.8933C131.581 48.8933 131.265 48.9349 131.039 49.0182C130.813 49.0897 130.7 49.2206 130.7 49.4111C130.7 49.5897 130.813 49.7266 131.039 49.8218C131.265 49.917 131.67 50.0361 132.253 50.1789C132.634 50.2742 132.795 50.3158 132.735 50.3039C133.497 50.5063 134.086 50.7325 134.503 50.9825C134.92 51.2325 135.211 51.5301 135.378 51.8753C135.557 52.2086 135.646 52.6372 135.646 53.161C135.646 53.9824 135.289 54.6371 134.575 55.1252C133.872 55.6014 132.848 55.8395 131.503 55.8395Z" fill="#3D3A2C"/>
<path d="M140.338 55.8395C139.16 55.8395 138.273 55.5121 137.678 54.8574C137.095 54.2026 136.803 53.3396 136.803 52.2682V47.0004H139.946V51.911C139.946 52.8991 140.392 53.3931 141.285 53.3931C141.69 53.3931 142.059 53.2979 142.392 53.1074C142.725 52.9169 142.999 52.6372 143.213 52.2682V47.0004H146.356V55.5716H143.321V54.6431C142.952 55.0359 142.505 55.3335 141.981 55.5359C141.458 55.7383 140.91 55.8395 140.338 55.8395Z" fill="#3D3A2C"/>
<path d="M147.965 47.0004H150.876V47.929C151.233 47.5481 151.644 47.2564 152.108 47.054C152.572 46.8397 153.066 46.7326 153.59 46.7326C154.233 46.7326 154.745 46.8278 155.126 47.0183C155.519 47.2088 155.834 47.4945 156.072 47.8754C156.429 47.5183 156.864 47.2385 157.376 47.0362C157.888 46.8338 158.406 46.7326 158.929 46.7326C160.06 46.7326 160.864 47.0243 161.34 47.6076C161.816 48.179 162.054 49.0063 162.054 50.0896V55.5716H159.054V50.5361C159.054 50.0599 158.965 49.7147 158.786 49.5004C158.608 49.2861 158.31 49.179 157.894 49.179C157.358 49.179 156.923 49.3694 156.59 49.7504C156.602 49.9527 156.608 50.2623 156.608 50.6789V55.5716H153.608V50.4111C153.608 49.9706 153.531 49.6551 153.376 49.4647C153.221 49.2742 152.947 49.179 152.555 49.179C151.947 49.179 151.424 49.5182 150.983 50.1968V55.5716H147.965V47.0004Z" fill="#3D3A2C"/>
</svg>
