<svg width="177" height="100" viewBox="0 0 177 100" fill="none" xmlns="http://www.w3.org/2000/svg">
<path d="M35.9517 46.2335C35.9152 47.0903 35.897 48.1751 35.897 49.4877C35.897 50.8003 35.9152 51.8941 35.9517 52.7692C35.9881 53.6261 36.061 54.3097 36.1704 54.8202C36.298 55.3306 36.4712 55.6861 36.69 55.8867C36.927 56.0872 37.2369 56.1875 37.6198 56.1875C38.0026 56.1875 38.3034 56.0872 38.5222 55.8867C38.7592 55.6861 38.9324 55.3306 39.0418 54.8202C39.1694 54.3097 39.2514 53.6261 39.2879 52.7692C39.3244 51.8941 39.3426 50.8003 39.3426 49.4877C39.3426 48.1751 39.3244 47.0903 39.2879 46.2335C39.2514 45.3584 39.1694 44.6656 39.0418 44.1552C38.9324 43.6447 38.7592 43.2892 38.5222 43.0887C38.3034 42.8881 38.0026 42.7878 37.6198 42.7878C37.2369 42.7878 36.927 42.8881 36.69 43.0887C36.4712 43.2892 36.298 43.6447 36.1704 44.1552C36.061 44.6656 35.9881 45.3584 35.9517 46.2335Z" fill="#394149"/>
<path fill-rule="evenodd" clip-rule="evenodd" d="M36.9205 29.1733C30.3267 29.3144 25.0855 34.7556 25.1913 41.35L25.3213 49.4524L25.1913 57.5548C25.0855 64.1493 30.3267 69.5905 36.9205 69.7315L45.0241 69.9049L53.1277 69.7315C59.7215 69.5905 64.9628 64.1493 64.857 57.5548L64.727 49.4524L64.857 41.35C64.9628 34.7556 59.7215 29.3144 53.1277 29.1733L45.0241 29L36.9205 29.1733ZM45.3041 59.7698L42.2413 62.4224L39.452 59.4143C39.2332 59.4508 39.0144 59.4782 38.7957 59.4964C38.5951 59.5328 38.3672 59.5511 38.112 59.5511H37.6198C36.3254 59.5511 35.2315 59.3779 34.3382 59.0315C33.4449 58.6851 32.7248 58.1108 32.1779 57.3087C31.631 56.4883 31.239 55.44 31.002 54.1639C30.765 52.8695 30.6465 51.3107 30.6465 49.4877C30.6465 47.6646 30.765 46.115 31.002 44.8388C31.239 43.5444 31.631 42.4962 32.1779 41.694C32.7248 40.8736 33.4449 40.2811 34.3382 39.9165C35.2315 39.5336 36.3254 39.3422 37.6198 39.3422C38.9142 39.3422 40.008 39.5336 40.9013 39.9165C41.7946 40.2811 42.5148 40.8736 43.0617 41.694C43.6086 42.4962 44.0006 43.5444 44.2376 44.8388C44.4746 46.115 44.5931 47.6646 44.5931 49.4877C44.5931 51.3654 44.4655 52.9515 44.2102 54.2459C43.955 55.5403 43.5357 56.5977 42.9523 57.4181L45.3041 59.7698ZM53.9363 46.753V45.6592C53.9363 44.5471 53.8269 43.7905 53.6081 43.3895C53.3894 42.9884 53.0339 42.7878 52.5416 42.7878C52.1588 42.7878 51.8489 42.8881 51.6119 43.0887C51.3931 43.2892 51.2199 43.6447 51.0923 44.1552C50.9829 44.6656 50.91 45.3584 50.8735 46.2335C50.837 47.0903 50.8188 48.1751 50.8188 49.4877C50.8188 50.8003 50.837 51.8941 50.8735 52.7692C50.91 53.6261 50.9829 54.3097 51.0923 54.8202C51.2199 55.3306 51.3931 55.6861 51.6119 55.8867C51.8489 56.0872 52.1588 56.1875 52.5416 56.1875C52.8515 56.1875 53.1068 56.1146 53.3073 55.9687C53.5079 55.8046 53.6628 55.5403 53.7722 55.1757C53.8816 54.8111 53.9545 54.3279 53.991 53.7263C54.0457 53.1065 54.073 52.3317 54.073 51.4019H58.9953V52.8513C58.9953 54.2186 58.813 55.3398 58.4484 56.2148C58.0838 57.0899 57.6007 57.7827 56.9991 58.2931C56.3974 58.7854 55.7047 59.1135 54.9207 59.2776C54.1551 59.4599 53.362 59.5511 52.5416 59.5511C51.1196 59.5511 49.9529 59.3779 49.0413 59.0315C48.1298 58.6851 47.4188 58.1108 46.9083 57.3087C46.3978 56.4883 46.0423 55.44 45.8418 54.1639C45.6595 52.8695 45.5683 51.3107 45.5683 49.4877C45.5683 47.6281 45.6777 46.0512 45.8965 44.7568C46.1335 43.4624 46.5255 42.4141 47.0724 41.612C47.6193 40.8098 48.3394 40.2355 49.2327 39.8891C50.126 39.5245 51.229 39.3422 52.5416 39.3422C53.6902 39.3422 54.6655 39.4881 55.4677 39.7798C56.2698 40.0715 56.917 40.4908 57.4093 41.0377C57.9197 41.5664 58.2843 42.2136 58.5031 42.9793C58.7401 43.7267 58.8586 44.5745 58.8586 45.5225V46.753H53.9363Z" fill="#394149"/>
<path fill-rule="evenodd" clip-rule="evenodd" d="M88.7549 42.9364L93.2131 47.5629L97.6713 42.9364H105.417L97.0801 50.8676L105.417 58.7987H97.6713L93.2131 54.1604L88.7549 58.7987H80.9974L89.3344 50.8676L80.9974 42.9364H88.7549ZM88.3251 50.8676L79.2576 42.2415H89.0513L93.2131 46.5604L97.3749 42.2415H106.819V42.2297H122.825C126.485 42.1923 129.583 45.2529 129.533 48.9252C129.532 50.2461 129.175 51.4637 128.46 52.5474C127.922 53.3677 127.24 54.0426 126.423 54.5558L129.836 58.9379V56.096C129.836 53.8694 131.5 52.4499 133.414 51.5085C135.347 50.5581 137.786 49.9643 139.817 49.4839C139.818 49.4837 139.819 49.4834 139.82 49.4832L139.843 49.4774C141.095 49.1695 142.161 48.9074 142.92 48.6247C143.304 48.4814 143.556 48.3517 143.7 48.2415C143.718 48.2275 143.733 48.2151 143.746 48.2044C143.702 48.164 143.612 48.1037 143.435 48.0342C143.022 47.8725 142.317 47.7507 141.249 47.7504C140.108 47.7622 139.138 47.855 138.476 48.0872C138.15 48.2017 137.953 48.3321 137.842 48.4545C137.748 48.5596 137.692 48.6843 137.697 48.8799L137.714 49.5915H130.084V48.8966C130.084 47.47 130.364 46.2772 130.924 45.2999C131.487 44.3182 132.307 43.6014 133.307 43.0873C135.269 42.0786 137.972 41.8284 140.986 41.8284C144.072 41.8284 146.634 42.1845 148.448 43.1013C149.366 43.5659 150.112 44.1842 150.625 44.9883C151.139 45.7945 151.391 46.7435 151.391 47.8226C151.391 49.8195 150.186 51.0914 148.709 51.9204C147.275 52.7253 145.47 53.1824 143.971 53.5481H151.131V59.4701H130.25L130.259 59.4819H121.895L118.903 55.6107H114.408V59.4819H107.144L107.157 59.4937H97.3744L93.2131 55.1643L89.0518 59.4937H79.2576L88.3251 50.8676ZM106.819 59.1719V42.5632L98.0893 50.8676L106.819 59.1719ZM119.246 54.9158L122.238 58.7869H128.836L125.371 54.3374C125.588 54.2369 125.795 54.1257 125.994 54.0041C126.752 53.5399 127.382 52.9232 127.878 52.1658C128.517 51.198 128.836 50.1122 128.836 48.9202C128.884 45.6391 126.105 42.8892 122.829 42.9246H107.515V58.7869H113.711V54.9158H119.246ZM140.324 54.243C140.541 53.9777 140.934 53.7521 141.456 53.5481C142.071 53.3073 142.863 53.0965 143.753 52.8858C146.804 52.1422 150.695 51.1272 150.695 47.8226C150.695 43.9514 147.1 42.5233 140.986 42.5233C135.237 42.5233 131.16 43.4599 130.806 48.2016C130.789 48.4248 130.78 48.6563 130.78 48.8966H137.001C137 48.8704 137 48.8446 137.001 48.8192C137.035 47.4093 138.981 47.0786 141.246 47.0554C143.457 47.0554 144.474 47.5511 144.474 48.2239C144.474 49.0543 142.512 49.537 140.048 50.1429L139.981 50.1594C135.889 51.1272 130.532 52.4727 130.532 56.096V58.7751H150.434V54.243H140.324ZM143.785 48.2577C143.784 48.2579 143.781 48.2533 143.779 48.2431C143.785 48.2523 143.786 48.2574 143.785 48.2577ZM121.932 48.9202C121.932 48.5487 121.64 48.2579 121.268 48.2579H114.408V49.5707H121.268C121.468 49.5707 121.608 49.51 121.733 49.3848C121.876 49.2422 121.932 49.0996 121.932 48.9202ZM122.628 48.9202C122.628 48.1648 122.025 47.5629 121.268 47.5629H113.711V50.2656H121.268C121.646 50.2656 121.966 50.1358 122.226 49.8762C122.498 49.6047 122.628 49.2861 122.628 48.9202Z" fill="#394149"/>
<path d="M81.5709 70.2423H84.5388V66.1786L87.5122 70.2423H88.9961L91.9696 66.1786V70.2423H94.9375V62.6249H91.2277L88.2542 66.4336L85.2864 62.6249H81.5709V70.2423Z" fill="#394149"/>
<path d="M101.19 62.4379C98.3244 62.4436 95.9796 63.271 95.9909 66.1559V66.7113C95.9796 69.5905 98.3244 70.4237 101.19 70.4293C104.05 70.4237 106.395 69.5905 106.384 66.7113V66.1559C106.384 63.2767 104.056 62.4379 101.19 62.4379ZM103.416 66.5243C103.433 67.7712 102.402 67.9979 101.19 68.0149C99.9726 67.9979 98.9417 67.7712 98.9587 66.5243V66.3373C98.9417 65.096 99.9726 64.8693 101.19 64.8523C102.402 64.8693 103.433 65.096 103.416 66.3373V66.5243Z" fill="#394149"/>
<path d="M114.698 66.445C114.698 67.2101 114.262 67.8392 113.492 67.8392H110.241V65.0507H113.492C114.262 65.0507 114.698 65.6741 114.698 66.445ZM107.273 62.6363V70.2536H114.047C116.137 70.282 117.689 68.5137 117.672 66.445C117.689 64.3649 116.137 62.6079 114.047 62.6363H107.273Z" fill="#394149"/>
<path d="M125.935 66.53C125.952 67.7825 124.922 67.9979 123.709 68.0149C122.492 67.9979 121.467 67.7825 121.478 66.53V62.6249H118.51V66.717C118.499 69.5962 120.855 70.4237 123.709 70.4293C126.564 70.4237 128.92 69.5962 128.909 66.717V62.6249H125.935V66.53Z" fill="#394149"/>
<path d="M130.245 62.6249V70.2423H139.155V67.8279H133.213V62.6249H130.245Z" fill="#394149"/>
<path d="M140.168 70.2536H149.078V68.2983H143.136V67.3234H149.078V65.5608H143.136V64.5859H149.078V62.6363H140.168V70.2536Z" fill="#394149"/>
<path d="M83.2797 33.6056V32.0003H87.6786C87.8917 32.0003 88.0772 32.0774 88.2284 32.2386C88.3865 32.3929 88.4621 32.5821 88.4621 32.8064C88.4621 33.0238 88.3865 33.213 88.2284 33.3743C88.0772 33.5285 87.8917 33.6056 87.6786 33.6056H83.2797ZM79.6782 29.2454V38.6668H83.2797V36.3675H88.579C90.4829 36.3956 92.0981 34.7482 92.0706 32.8064C92.0981 30.8577 90.4829 29.2243 88.579 29.2454H79.6782Z" fill="#394149"/>
<path d="M99.2393 29C95.7615 29.007 92.916 30.0305 92.9297 33.5986V34.2856C92.916 37.8467 95.7615 38.8771 99.2393 38.8841C102.71 38.8771 105.556 37.8467 105.542 34.2856V33.5986C105.542 30.0375 102.717 29 99.2393 29ZM101.94 34.0542C101.961 35.5964 100.71 35.8768 99.2393 35.8979C97.7616 35.8768 96.5107 35.5964 96.5313 34.0542V33.8229C96.5107 32.2877 97.7616 32.0073 99.2393 31.9863C100.71 32.0073 101.961 32.2877 101.94 33.8229V34.0542Z" fill="#394149"/>
<path d="M119.584 35.2109L117.446 29.2454H113.391L111.247 35.2109L109.109 29.2454H105.054L109.109 38.6668H113.391L115.419 33.9561L117.446 38.6668H121.728L125.784 29.2454H121.728L119.584 35.2109Z" fill="#394149"/>
<path d="M126.059 38.6668H136.87V36.2484H129.66V35.0426H136.87V32.8625H129.66V31.6568H136.87V29.2454H126.059V38.6668Z" fill="#394149"/>
<path d="M138.788 29.2383V38.6598H142.389V36.3605H145.606L147.345 38.6598H151.18L149.166 36.017C149.771 35.7296 150.259 35.295 150.623 34.7272C150.995 34.1524 151.18 33.5075 151.18 32.7994C151.208 30.8506 149.592 29.2173 147.689 29.2383H138.788ZM146.781 31.9933C147.221 31.9933 147.572 32.3508 147.572 32.7994C147.572 33.0167 147.496 33.206 147.338 33.3672C147.187 33.5215 147.001 33.5986 146.781 33.5986H142.389V31.9933H146.781Z" fill="#394149"/>
</svg>
