<svg width="177" height="100" viewBox="0 0 177 100" fill="none" xmlns="http://www.w3.org/2000/svg">
<path d="M75.5459 40.621C75.5459 40.4686 75.5459 38.2513 75.5459 38.2513H74.2283C74.2283 38.2513 74.2283 40.4342 74.2283 40.5031C74.2283 40.9062 73.8547 41.1766 73.2254 41.1766C72.5666 41.1766 72.2077 40.916 72.2077 40.4981C72.2077 40.4293 72.2077 38.2513 72.2077 38.2513H70.8753C70.8753 38.2513 70.8753 40.3211 70.8753 40.4981C70.8753 41.6682 71.834 42.1648 73.1713 42.1648C74.602 42.1648 75.5459 41.6633 75.5459 40.621Z" fill="#394149"/>
<path d="M79.9833 42.1107V41.0832H77.6333V38.2513H76.3009V42.1107H79.9833Z" fill="#394149"/>
<path d="M83.943 39.2199V38.2513H79.3363V39.2199H80.9636V42.1107H82.3107V39.2199H83.943Z" fill="#394149"/>
<path d="M85.7143 42.1107V38.2513H84.3623V42.1107H85.7143Z" fill="#394149"/>
<path d="M91.9172 42.1107V38.2513H90.2505L89.1984 40.567L88.1955 38.2513H86.4747V42.1107H87.7284V40.0262L88.633 42.1107H89.754L90.6684 40.0262V42.1107H91.9172Z" fill="#394149"/>
<path d="M94.0054 41.3978H96.09L96.4293 42.1107H97.8501L95.9032 38.2513H94.3152L92.2552 42.1107H93.6465L94.0054 41.3978ZM95.6721 40.5325H94.4381L94.9248 39.6033L95.0723 39.2494L95.21 39.5984L95.6721 40.5325Z" fill="#394149"/>
<path d="M102.029 39.2199V38.2513H97.4225V39.2199H99.0498V42.1107H100.397V39.2199H102.029Z" fill="#394149"/>
<path d="M106.509 42.1107V41.152H103.742V40.6505H106.396V39.7115H103.742V39.2149H106.475V38.2513H102.444V42.1107H106.509Z" fill="#394149"/>
<path d="M80.9232 44.1623H79.6498C79.6498 44.1623 78.8189 46.591 78.8189 46.65C78.8189 46.591 78.0421 44.1623 78.0421 44.1623H76.6606C76.6606 44.1623 75.8887 46.591 75.8887 46.65C75.8887 46.591 75.0529 44.1623 75.0529 44.1623H73.6222L75.0677 48.0217H76.5082C76.5082 48.0217 77.285 45.7159 77.2899 45.652C77.2948 45.7159 78.0667 48.0217 78.0667 48.0217H79.5121L80.9232 44.1623Z" fill="#394149"/>
<path d="M82.6655 48.0217V44.1623H81.3135V48.0217H82.6655Z" fill="#394149"/>
<path d="M87.9245 48.0217V44.1623H86.6659V46.2616L84.8124 44.1623H83.4259V48.0217H84.6944V45.8732L86.6069 48.0217H87.9245Z" fill="#394149"/>
<path d="M93.1914 48.0217V44.1623H91.9328V46.2616L90.0793 44.1623H88.6929V48.0217H89.9613V45.8732L91.8738 48.0217H93.1914Z" fill="#394149"/>
<path d="M98.0257 48.0217V47.063H95.2578V46.5615H97.9126V45.6225H95.2578V45.1259H97.9913V44.1623H93.9598V48.0217H98.0257Z" fill="#394149"/>
<path d="M103.223 45.3373C103.223 44.9883 103.139 44.7375 102.962 44.5556C102.731 44.3098 102.333 44.1623 101.723 44.1623H98.6506V48.0217H99.9633V46.6599H101.158L102.117 48.0217H103.582L102.417 46.4484C102.677 46.4091 102.889 46.2518 103.026 46.065C103.149 45.8929 103.223 45.6372 103.223 45.3373ZM101.945 45.4602C101.945 45.5242 101.935 45.6028 101.9 45.6618C101.851 45.7601 101.723 45.7995 101.512 45.7995H99.9682V45.0964H101.487C101.694 45.0964 101.832 45.1308 101.9 45.2587C101.935 45.3078 101.945 45.3865 101.945 45.4602Z" fill="#394149"/>
<path d="M76.1002 51.8187C76.1002 51.7556 76.1002 49.9328 76.1002 49.9328H75.6399C75.6399 49.9328 75.6399 51.7481 75.6399 51.789C75.6399 52.227 75.2278 52.4758 74.6338 52.4758C73.9322 52.4758 73.5869 52.2085 73.5869 51.7853C73.5869 51.7444 73.5869 49.9328 73.5869 49.9328H73.1229C73.1229 49.9328 73.1229 51.6999 73.1229 51.7704C73.1229 52.5426 73.7243 52.8841 74.6153 52.8841C75.5359 52.8841 76.1002 52.5203 76.1002 51.8187Z" fill="#394149"/>
<path d="M79.4031 52.847V52.4201H77.3947V49.9328H76.9307V52.847H79.4031Z" fill="#394149"/>
<path d="M82.0399 50.356V49.9328H78.9437V50.356H80.2579V52.847H80.7257V50.356H82.0399Z" fill="#394149"/>
<path d="M85.3395 50.7569C85.3395 50.549 85.2949 50.3968 85.217 50.2743C85.0796 50.0701 84.816 49.9328 84.378 49.9328H82.4921V52.847H82.9487V51.6182H84.2777L85.0907 52.847H85.6253L84.7455 51.5402C84.9682 51.5143 85.1427 51.388 85.2355 51.2247C85.3024 51.1133 85.3395 50.95 85.3395 50.7569ZM84.8791 50.794C84.8791 50.8757 84.8606 50.976 84.8272 51.0428C84.7678 51.1504 84.6304 51.2061 84.4077 51.2098H82.9524C82.9524 51.2024 82.9524 50.3486 82.9524 50.3486H84.3223C84.6007 50.3486 84.7492 50.4154 84.8272 50.5416C84.8606 50.601 84.8791 50.7012 84.8791 50.794Z" fill="#394149"/>
<path d="M86.6606 52.1268H88.476L88.8472 52.847H89.3447L87.8671 49.9328H87.3214L85.7956 52.847H86.2819L86.6606 52.1268ZM88.2829 51.7147H86.8611L87.4513 50.5973L87.5813 50.3263L87.7112 50.5973L88.2829 51.7147Z" fill="#394149"/>
<path d="M94.053 52.5686C94.1681 52.4349 94.2201 52.2456 94.2201 52.0414C94.2201 51.8484 94.1644 51.6553 94.0493 51.5365C93.9342 51.4252 93.7486 51.3324 93.5444 51.3138C93.6632 51.2952 93.756 51.221 93.8191 51.143C93.9194 51.0279 93.9787 50.8423 93.9787 50.6567C93.9787 50.4599 93.9194 50.2817 93.7931 50.1592C93.6558 50.0219 93.4219 49.9328 93.0952 49.9328H91.135V52.847H93.24C93.6335 52.847 93.9082 52.7468 94.053 52.5686ZM93.4998 50.7495C93.4998 50.8794 93.459 50.9945 93.3885 51.0613C93.3179 51.1393 93.1991 51.1727 93.0729 51.1727H91.5879V50.3337H92.9875C93.1583 50.3337 93.2882 50.3671 93.3773 50.4488C93.4553 50.523 93.4998 50.6307 93.4998 50.7495ZM93.6483 52.2864C93.5555 52.3904 93.3959 52.4424 93.162 52.4424H91.5879V51.5774H93.1732C93.3885 51.5774 93.537 51.6219 93.6261 51.7073C93.7077 51.7853 93.7412 51.8855 93.7412 52.0006C93.7412 52.1194 93.7152 52.2196 93.6483 52.2864Z" fill="#394149"/>
<path d="M97.5903 52.847V52.4201H95.3258V51.5885H97.5012V51.1653H95.3258V50.356H97.5643V49.9328H94.8728V52.847H97.5903Z" fill="#394149"/>
<path d="M101.217 51.9857C101.217 51.5105 100.902 51.2655 100.126 51.1764C99.9957 51.1579 99.7135 51.1282 99.5613 51.1096C98.8411 51.0242 98.6221 50.9277 98.6221 50.679C98.6221 50.4377 98.8634 50.3003 99.591 50.3003C100.155 50.3003 100.445 50.4117 100.59 50.6121C100.631 50.6678 100.653 50.7347 100.664 50.7866H101.161C101.147 50.7012 101.113 50.5824 101.061 50.4859C100.861 50.1407 100.449 49.8919 99.591 49.8919C98.5664 49.8882 98.1432 50.2595 98.1432 50.7198C98.1432 51.1801 98.4736 51.414 99.3312 51.5143C99.4797 51.5328 99.7432 51.5625 99.8732 51.5774C100.538 51.659 100.746 51.7593 100.746 52.0377C100.746 52.2939 100.508 52.4795 99.7469 52.4795C99.1233 52.4795 98.7891 52.3681 98.6555 52.1528C98.6147 52.0934 98.5887 52.0006 98.585 51.9375H98.0949C98.1061 52.0711 98.1432 52.2159 98.21 52.331C98.4031 52.6837 98.856 52.8879 99.7321 52.8879C100.779 52.8879 101.217 52.55 101.217 51.9857Z" fill="#394149"/>
<path d="M104.546 50.356V49.9328H101.45V50.356H102.764V52.847H103.232V50.356H104.546Z" fill="#394149"/>
<path d="M71.8088 55.38C71.8088 55.083 71.7494 54.8825 71.6491 54.7303C71.5081 54.5112 71.2333 54.3962 70.7544 54.3962H68.9131V57.3104H69.3734V56.36C69.3734 56.36 70.6728 56.36 70.7359 56.36C71.1851 56.3563 71.4932 56.2524 71.6566 56.0148C71.7605 55.87 71.8088 55.6621 71.8088 55.38ZM71.341 55.38C71.341 55.5284 71.3261 55.6398 71.2779 55.7141C71.1925 55.8514 71.018 55.9368 70.6579 55.9368C70.6245 55.9368 69.3734 55.9368 69.3734 55.9368V54.812H70.6728C71.0106 54.812 71.1851 54.8899 71.2779 55.0421C71.3224 55.1089 71.341 55.2315 71.341 55.38Z" fill="#394149"/>
<path d="M75.169 57.3104V56.8835H72.9044V56.0519H75.0799V55.6287H72.9044V54.8194H75.143V54.3962H72.4515V57.3104H75.169Z" fill="#394149"/>
<path d="M78.7104 55.2203C78.7104 55.0124 78.6659 54.8602 78.5879 54.7377C78.4505 54.5335 78.187 54.3962 77.7489 54.3962H75.863V57.3104H76.3196V56.0816H77.6487L78.4617 57.3104H78.9963L78.1164 56.0036C78.3392 55.9777 78.5137 55.8514 78.6065 55.6881C78.6733 55.5767 78.7104 55.4134 78.7104 55.2203ZM78.2501 55.2574C78.2501 55.3391 78.2315 55.4394 78.1981 55.5062C78.1387 55.6138 78.0013 55.6695 77.7786 55.6732H76.3233C76.3233 55.6658 76.3233 54.812 76.3233 54.812H77.6932C77.9716 54.812 78.1201 54.8788 78.1981 55.005C78.2315 55.0644 78.2501 55.1646 78.2501 55.2574Z" fill="#394149"/>
<path d="M82.1522 54.8194V54.3962H79.5609V57.3104H80.0212V56.0705H82.0557V55.6361H80.0212V54.8194H82.1522Z" fill="#394149"/>
<path d="M84.2651 54.3442C83.6451 54.3442 83.2182 54.4964 82.9137 54.8157C82.6576 55.0644 82.5462 55.4097 82.5462 55.844C82.5462 56.3192 82.691 56.6756 82.9583 56.9169C83.2442 57.2028 83.6822 57.3512 84.2651 57.3512C84.8665 57.3512 85.3342 57.2028 85.6127 56.902C85.854 56.657 85.9802 56.3081 85.9802 55.8403C85.9802 55.3874 85.8725 55.0421 85.6164 54.7971C85.3231 54.4927 84.885 54.3442 84.2651 54.3442ZM84.2651 56.9355C83.8567 56.9355 83.5671 56.8464 83.3481 56.6682C83.1254 56.4863 83.0177 56.2078 83.0177 55.8514C83.0177 55.5173 83.1105 55.2389 83.2887 55.0718C83.4929 54.8788 83.8047 54.7637 84.2614 54.7637C84.7328 54.7637 85.0261 54.8751 85.2451 55.0681C85.4308 55.2315 85.5124 55.521 85.5124 55.8477C85.5124 56.1781 85.4271 56.4603 85.2377 56.631C85.0187 56.8352 84.7106 56.9355 84.2651 56.9355Z" fill="#394149"/>
<path d="M89.4634 55.2203C89.4634 55.0124 89.4188 54.8602 89.3409 54.7377C89.2035 54.5335 88.9399 54.3962 88.5019 54.3962H86.616V57.3104H87.0726V56.0816H88.4016L89.2147 57.3104H89.7492L88.8694 56.0036C89.0921 55.9777 89.2666 55.8514 89.3594 55.6881C89.4263 55.5767 89.4634 55.4134 89.4634 55.2203ZM89.003 55.2574C89.003 55.3391 88.9845 55.4394 88.9511 55.5062C88.8917 55.6138 88.7543 55.6695 88.5316 55.6732H87.0763C87.0763 55.6658 87.0763 54.812 87.0763 54.812H88.4462C88.7246 54.812 88.8731 54.8788 88.9511 55.005C88.9845 55.0644 89.003 55.1646 89.003 55.2574Z" fill="#394149"/>
<path d="M93.9038 57.3104V54.3962H93.3024L92.1033 56.7944L90.9264 54.3962H90.3139V57.3104H90.7557V55.0681L91.8545 57.3104H92.3371L93.462 55.0681V57.3104H93.9038Z" fill="#394149"/>
<path d="M95.2075 56.5902H97.0229L97.3941 57.3104H97.8916L96.414 54.3962H95.8683L94.3425 57.3104H94.8288L95.2075 56.5902ZM96.8298 56.1781H95.408L95.9982 55.0607L96.1282 54.7897L96.2581 55.0607L96.8298 56.1781Z" fill="#394149"/>
<path d="M101.236 57.3104V54.3962H100.794V56.6607L98.864 54.3962H98.3405V57.3104H98.7897V55.031L100.735 57.3104H101.236Z" fill="#394149"/>
<path d="M105.241 56.2227H104.758C104.743 56.3563 104.691 56.49 104.598 56.5902C104.398 56.8241 104.079 56.9243 103.589 56.9243C103.177 56.9243 102.735 56.8092 102.523 56.5085C102.412 56.3675 102.341 56.1596 102.341 55.8477C102.341 55.5693 102.39 55.3614 102.497 55.2203C102.675 54.9345 103.05 54.786 103.578 54.786C104.09 54.786 104.413 54.927 104.584 55.1238C104.68 55.2277 104.736 55.3503 104.754 55.495H105.237C105.222 55.3317 105.17 55.1386 105.059 54.9753C104.821 54.6226 104.383 54.3442 103.581 54.3442C102.817 54.3442 102.36 54.5892 102.107 54.9567C101.944 55.1683 101.862 55.4653 101.862 55.844C101.862 56.2672 101.963 56.5791 102.137 56.7981C102.39 57.1434 102.876 57.3512 103.611 57.3512C104.365 57.3512 104.814 57.1248 105.037 56.7647C105.163 56.5902 105.226 56.3823 105.241 56.2227Z" fill="#394149"/>
<path d="M108.563 57.3104V56.8835H106.298V56.0519H108.474V55.6287H106.298V54.8194H108.537V54.3962H105.845V57.3104H108.563Z" fill="#394149"/>
<path d="M74.6118 60.2054L75.167 61.9142H76.9637L75.5102 62.9703L76.0654 64.679L74.6118 63.623L73.1582 64.679L73.7135 62.9703L72.2599 61.9142H74.0566L74.6118 60.2054Z" fill="#394149"/>
<path d="M81.0214 60.2055L81.5879 61.9142H83.4213L81.9381 62.9703L82.5046 64.6791L81.0214 63.623L79.5382 64.6791L80.1047 62.9703L78.6215 61.9142H80.4549L81.0214 60.2055Z" fill="#394149"/>
<path d="M87.3803 60.2055L87.9469 61.9142H89.7802L88.297 62.9703L88.8636 64.6791L87.3803 63.623L85.8971 64.6791L86.4636 62.9703L84.9804 61.9142H86.8138L87.3803 60.2055Z" fill="#394149"/>
<path d="M93.7394 60.2055L94.3059 61.9142H96.1393L94.6561 62.9703L95.2226 64.6791L93.7394 63.623L92.2562 64.6791L92.8227 62.9703L91.3395 61.9142H93.1729L93.7394 60.2055Z" fill="#394149"/>
<path d="M100.149 60.2055L100.704 61.9142H102.501L101.047 62.9703L101.602 64.6791L100.149 63.623L98.6953 64.6791L99.2506 62.9703L97.797 61.9142H99.5937L100.149 60.2055Z" fill="#394149"/>
<path d="M77.726 31.3762L78.1458 32.6682H79.5043L78.4053 33.4667L78.8251 34.7586L77.726 33.9602L76.627 34.7586L77.0468 33.4667L75.9478 32.6682H77.3063L77.726 31.3762Z" fill="#394149"/>
<path d="M82.5723 31.3744L83.0007 32.6664H84.3868L83.2654 33.4649L83.6937 34.7568L82.5723 33.9583L81.4508 34.7568L81.8792 33.4649L80.7577 32.6664H82.1439L82.5723 31.3744Z" fill="#394149"/>
<path d="M87.3801 31.3744L87.8084 32.6664H89.1946L88.0732 33.4649L88.5015 34.7568L87.3801 33.9583L86.2586 34.7568L86.687 33.4649L85.5655 32.6664H86.9517L87.3801 31.3744Z" fill="#394149"/>
<path d="M92.1886 31.3744L92.6169 32.6664H94.0031L92.8817 33.4649L93.31 34.7568L92.1886 33.9583L91.0671 34.7568L91.4955 33.4649L90.374 32.6664H91.7602L92.1886 31.3744Z" fill="#394149"/>
<path d="M97.0341 31.3744L97.4539 32.6664H98.8124L97.7134 33.4649L98.1332 34.7568L97.0341 33.9583L95.9351 34.7568L96.3549 33.4649L95.2559 32.6664H96.6143L97.0341 31.3744Z" fill="#394149"/>
<path fill-rule="evenodd" clip-rule="evenodd" d="M58.3764 54.6304C56.5238 43.0395 61.9306 31.5717 72.7547 26.6471L72.8546 26.8667C62.1394 31.7417 56.7773 43.0973 58.6146 54.5923C60.6473 67.3096 70.9067 74.9366 83.4702 75.3043L83.4631 75.5455C70.8017 75.1749 60.43 67.4789 58.3764 54.6304Z" fill="#394149"/>
<path d="M70.4078 29.6052C68.4075 29.6508 66.0664 30.7788 64.685 32.4172C65.7928 33.4459 67.5752 33.0656 68.8579 32.8552C70.6886 32.555 72.6354 31.9734 74.3629 31.1501C73.6526 29.6381 71.7392 29.5749 70.4078 29.6052Z" fill="#394149"/>
<path d="M68.8347 27.1376C67.6499 28.9832 66.2379 30.8175 64.7013 32.4328C63.4157 31.226 64.1917 29.2177 64.7164 27.9688C65.6669 25.7058 67.9458 23.7543 70.3283 22.7558C70.9822 24.2435 69.5619 26.0048 68.8347 27.1376Z" fill="#394149"/>
<path d="M64.6194 34.7807C62.7464 35.4465 61.1369 37.3207 60.3288 39.2023C61.6756 39.8285 63.2067 38.9242 64.3268 38.3221C65.8648 37.4953 67.4339 36.3545 68.6685 35.0343C67.553 33.8573 65.8592 34.3401 64.6194 34.7807Z" fill="#394149"/>
<path d="M62.349 32.9365C61.939 35.0415 61.2516 37.2233 60.3488 39.2119C58.773 38.4687 58.833 36.3401 58.9005 34.9855C59.0157 32.6734 60.3092 30.0368 62.1101 28.3612C63.2126 29.5432 62.6102 31.5956 62.349 32.9365Z" fill="#394149"/>
<path d="M61.0155 41.4625C59.4548 42.6937 58.5088 44.9754 58.2897 47.0129C59.7661 47.1824 60.9462 45.8388 61.8243 44.917C63.0198 43.6619 64.1515 42.0877 64.8702 40.4408C63.4628 39.673 62.0321 40.6605 61.0155 41.4625Z" fill="#394149"/>
<path d="M58.3115 40.4231C58.5898 42.5488 58.5904 44.8485 58.312 47.0157C56.595 46.8048 56.0255 44.7432 55.6891 43.4499C55.1083 41.2175 55.4977 38.3339 56.6291 36.1637C58.043 36.9464 58.1337 39.0644 58.3115 40.4231Z" fill="#394149"/>
<path d="M59.7907 48.756C58.5557 50.5651 58.1214 53.4002 58.6768 55.679C60.3088 55.2926 61.1178 53.4449 61.7674 52.14C62.6307 50.4057 63.3604 48.3824 63.6216 46.3973C61.8515 46.0289 60.6042 47.5642 59.7907 48.756Z" fill="#394149"/>
<path d="M56.5487 48.5731C57.5109 50.8008 58.2618 53.2527 58.7012 55.6735C56.8295 56.0756 55.4824 54.1102 54.6998 52.807C53.3065 50.4872 52.9006 47.2713 53.411 44.4961C55.1241 44.8396 55.9624 47.2161 56.5487 48.5731Z" fill="#394149"/>
<path d="M60.6546 56.6271C59.9915 58.8217 60.4524 61.8052 61.795 63.8684C63.2704 62.9078 63.4746 60.7936 63.6837 59.2777C63.9594 57.2773 64.0892 55.0613 63.7467 52.987C61.8596 53.2279 61.0975 55.161 60.6546 56.6271Z" fill="#394149"/>
<path d="M57.3752 57.5666C59.0308 59.4663 60.558 61.6323 61.8175 63.8542C60.1093 64.9206 58.1048 63.4637 56.8891 62.4327C54.7324 60.6038 53.332 57.4953 53 54.5647C54.7948 54.3235 56.3765 56.4205 57.3752 57.5666Z" fill="#394149"/>
<path d="M64.1341 64.0967C64.2764 66.6512 65.9395 69.3317 68.1539 70.8574C69.2233 69.3933 68.553 67.15 68.1882 65.5841C67.6971 63.4758 67.0174 61.2804 66.0073 59.3324C64.2459 60.2632 64.0404 62.4144 64.1341 64.0967Z" fill="#394149"/>
<path d="M61.1558 66.2545C63.5549 67.5876 65.9471 69.1607 68.1713 70.8346C66.8393 72.5886 64.1769 71.8892 62.5265 71.3254C59.6181 70.3319 57.0252 67.7129 55.6709 64.8032C57.388 63.9187 59.7386 65.467 61.1558 66.2545Z" fill="#394149"/>
<path d="M70.9669 70.3374C72.4068 72.9652 75.6881 74.6795 78.7781 75.0922C79.1107 73.1818 77.0436 71.2903 75.9172 70.0529C74.3135 68.2912 72.6424 66.463 70.7688 64.9398C69.3651 66.5696 70.1072 68.7685 70.9669 70.3374Z" fill="#394149"/>
<path d="M68.9105 73.6678C72.1836 74.0081 75.5122 74.498 78.7834 75.0629C78.4711 77.4733 74.646 77.8623 72.9095 78.0046C69.349 78.2964 65.3882 76.8652 62.6303 74.4558C64.0001 72.844 67.167 73.4866 68.9105 73.6678Z" fill="#394149"/>
<path d="M75.2149 24.624C73.0174 25.2509 70.4452 26.4402 69.1745 28.6356C71.481 28.3842 73.7479 27.5635 75.9648 26.9382C78.448 26.2377 81.0627 25.7138 83.4669 24.7469C80.8339 23.6935 77.7301 23.9064 75.2149 24.624Z" fill="#394149"/>
<path fill-rule="evenodd" clip-rule="evenodd" d="M117.728 54.5923C119.565 43.0973 114.203 31.7419 103.488 26.8667L103.588 26.6471C114.412 31.5718 119.819 43.0395 117.966 54.6304C115.913 67.4789 105.541 75.1749 92.8796 75.5455L92.8726 75.3043C105.436 74.9366 115.695 67.3096 117.728 54.5923Z" fill="#394149"/>
<path d="M105.935 29.6052C107.935 29.6508 110.276 30.7788 111.658 32.4172C110.55 33.4459 108.767 33.0656 107.485 32.8552C105.654 32.555 103.707 31.9734 101.98 31.1501C102.69 29.6381 104.603 29.5749 105.935 29.6052Z" fill="#394149"/>
<path d="M107.508 27.1376C108.693 28.9832 110.105 30.8175 111.641 32.4328C112.927 31.226 112.151 29.2177 111.626 27.9688C110.676 25.7058 108.397 23.7543 106.014 22.7558C105.36 24.2435 106.781 26.0048 107.508 27.1376Z" fill="#394149"/>
<path d="M111.724 34.7807C113.597 35.4465 115.206 37.3207 116.014 39.2023C114.667 39.8285 113.136 38.9242 112.016 38.3221C110.478 37.4953 108.909 36.3545 107.675 35.0343C108.79 33.8573 110.484 34.3401 111.724 34.7807Z" fill="#394149"/>
<path d="M113.994 32.9365C114.404 35.0415 115.091 37.2233 115.994 39.2119C117.57 38.4687 117.51 36.3401 117.442 34.9855C117.327 32.6734 116.034 30.0368 114.233 28.3612C113.13 29.5432 113.733 31.5956 113.994 32.9365Z" fill="#394149"/>
<path d="M115.327 41.4625C116.888 42.6937 117.834 44.9754 118.053 47.0129C116.577 47.1824 115.397 45.8388 114.519 44.917C113.323 43.6619 112.191 42.0877 111.473 40.4408C112.88 39.673 114.311 40.6605 115.327 41.4625Z" fill="#394149"/>
<path d="M118.032 40.4231C117.753 42.5486 117.753 44.8485 118.031 47.0157C119.748 46.8048 120.318 44.7432 120.654 43.4499C121.235 41.2175 120.845 38.3339 119.714 36.1637C118.3 36.9464 118.209 39.0644 118.032 40.4231Z" fill="#394149"/>
<path d="M116.552 48.756C117.787 50.5651 118.221 53.4002 117.666 55.679C116.034 55.2926 115.225 53.445 114.575 52.14C113.712 50.4057 112.982 48.3824 112.721 46.3973C114.491 46.0289 115.739 47.5642 116.552 48.756Z" fill="#394149"/>
<path d="M119.794 48.5731C118.832 50.8008 118.081 53.2527 117.642 55.6735C119.513 56.0756 120.86 54.1102 121.643 52.807C123.036 50.4872 123.442 47.2713 122.932 44.4961C121.219 44.8396 120.38 47.2161 119.794 48.5731Z" fill="#394149"/>
<path d="M115.688 56.6271C116.351 58.8217 115.891 61.8052 114.548 63.8684C113.073 62.9078 112.868 60.7936 112.659 59.2777C112.384 57.2773 112.254 55.0613 112.596 52.987C114.483 53.2279 115.245 55.161 115.688 56.6271Z" fill="#394149"/>
<path d="M118.967 57.5666C117.312 59.4664 115.785 61.6323 114.525 63.8542C116.233 64.9206 118.238 63.4637 119.454 62.4327C121.61 60.6038 123.011 57.4953 123.343 54.5647C121.548 54.3235 119.966 56.4205 118.967 57.5666Z" fill="#394149"/>
<path d="M112.208 64.0967C112.066 66.6512 110.403 69.3317 108.189 70.8574C107.119 69.3933 107.79 67.1501 108.154 65.5841C108.645 63.4758 109.325 61.2804 110.335 59.3324C112.097 60.2632 112.302 62.4144 112.208 64.0967Z" fill="#394149"/>
<path d="M115.187 66.2545C112.788 67.5876 110.396 69.1607 108.172 70.8346C109.504 72.5886 112.166 71.8892 113.816 71.3254C116.725 70.3319 119.318 67.7129 120.672 64.8032C118.955 63.9187 116.604 65.467 115.187 66.2545Z" fill="#394149"/>
<path d="M105.376 70.3374C103.936 72.9652 100.655 74.6795 97.5646 75.0922C97.232 73.1818 99.299 71.2903 100.426 70.0529C102.029 68.2912 103.7 66.463 105.574 64.9398C106.978 66.5696 106.235 68.7685 105.376 70.3374Z" fill="#394149"/>
<path d="M107.432 73.6678C104.159 74.0081 100.831 74.498 97.5592 75.0629C97.8716 77.4733 101.697 77.8623 103.433 78.0046C106.994 78.2964 110.955 76.8652 113.712 74.4558C112.343 72.844 109.176 73.4866 107.432 73.6678Z" fill="#394149"/>
<path d="M101.128 24.624C103.325 25.2509 105.898 26.4402 107.168 28.6356C104.862 28.3842 102.595 27.5635 100.378 26.9382C97.8948 26.2377 95.2801 25.7138 92.8759 24.7469C95.509 23.6935 98.6127 23.9064 101.128 24.624Z" fill="#394149"/>
<path d="M89.6004 23.4879L88.4729 21L87.3666 23.4416L84.7937 21.8464L86.447 25.3207H90.5586L92.1522 21.8464L89.6004 23.4879Z" fill="#394149"/>
<path d="M90.5322 25.8606H86.4141V26.4683H90.5322V25.8606Z" fill="#394149"/>
<path d="M88.7674 72.8718L89.431 74.914H91.5783L89.8411 76.1761L90.5046 78.2183L88.7674 76.9562L87.0302 78.2183L87.6938 76.1761L85.9566 74.914H88.1039L88.7674 72.8718Z" fill="#394149"/>
</svg>
