<svg width="177" height="100" viewBox="0 0 177 100" fill="none" xmlns="http://www.w3.org/2000/svg">
<path d="M24.8351 68.8131L20.6598 61.5812L26.7873 50.9971L30.6811 57.7419L53.6669 57.7295L47.1446 68.9129L24.8351 68.8131Z" fill="#FFAD64"/>
<path d="M57.7713 50.5484L53.596 57.7802L41.3662 57.7658L45.2604 51.0212L33.7568 31.1211L46.7031 31.1779L57.7713 50.5484Z" fill="#ADD4D3"/>
<path d="M25.4787 31.0826L33.8293 31.0826L39.9317 41.6813L32.1435 41.681L20.6614 61.5935L14.2374 50.3533L25.4787 31.0826Z" fill="#FB8351"/>
<path fill-rule="evenodd" clip-rule="evenodd" d="M34.8472 29.4081L34.8223 29.3649H24.492L12.2539 50.3445L20.6547 65.0435L20.665 65.0257L23.8408 70.5264L48.1287 70.6351L56.6581 56.0102L56.6013 56.0102L59.7522 50.5528L47.7024 29.4645L34.8472 29.4081ZM42.8384 43.399L42.9028 43.399L36.8303 32.8523L45.7037 32.8912L55.7904 50.5439L52.6332 56.0124L44.3594 56.0168L47.2442 51.0206L42.8384 43.399ZM32.7435 32.8003L36.8842 39.9634L31.1512 39.9632L21.3362 56.9844L20.6667 58.1409L16.2209 50.362L26.4652 32.8003L32.7435 32.8003ZM28.7625 50.9829L33.1358 43.3987L38.8702 43.3989L43.2766 51.0216L40.3912 56.019L31.6726 56.0237L28.7625 50.9829ZM22.6472 61.5881L24.311 58.7028L26.7852 54.4291L29.6897 59.4602L38.407 59.4555L38.3929 59.4799L50.6491 59.4944L46.1605 67.1908L25.8294 67.0998L22.6472 61.5881Z" fill="#333237"/>
<path d="M69.7569 64.6589V56.6172H66.7847V55.7144H73.8681V56.6172H70.8958V64.6589H69.7569Z" fill="#333237"/>
<path d="M77.0326 64.7978C75.8566 64.7978 74.977 64.5154 74.3937 63.9506C73.8103 63.3858 73.5187 62.5154 73.5187 61.3394C73.5187 60.2839 73.7687 59.4552 74.2687 58.8533C74.7779 58.2422 75.5789 57.9366 76.6715 57.9366C77.3196 57.9366 77.852 58.057 78.2687 58.2978C78.6946 58.5292 79.0095 58.8533 79.2132 59.27C79.4261 59.6774 79.5326 60.1404 79.5326 60.6589V61.895H74.6576C74.6946 62.395 74.8011 62.7885 74.977 63.0756C75.1622 63.3626 75.4353 63.5709 75.7965 63.7006C76.1668 63.8209 76.653 63.8811 77.2548 63.8811C77.9307 63.8811 78.5511 63.7654 79.1159 63.5339V64.4228C78.8289 64.5432 78.5048 64.6358 78.1437 64.7006C77.7918 64.7654 77.4215 64.7978 77.0326 64.7978ZM74.6576 61.0756H78.5187V60.5339C78.5187 59.9968 78.3752 59.5848 78.0881 59.2978C77.8104 59.0015 77.3474 58.8533 76.6992 58.8533C75.9122 58.8533 75.3752 59.0385 75.0881 59.4089C74.8011 59.7792 74.6576 60.3348 74.6576 61.0756Z" fill="#333237"/>
<path d="M84.3132 64.7978C83.1651 64.7978 82.3132 64.5015 81.7577 63.9089C81.2021 63.3071 80.9243 62.4598 80.9243 61.3672C80.9243 60.2098 81.2391 59.3487 81.8688 58.7839C82.4984 58.2191 83.3456 57.9366 84.4105 57.9366C84.8457 57.9366 85.2068 57.969 85.4938 58.0339C85.7808 58.0894 86.0586 58.182 86.3271 58.3116V59.2144C85.8271 58.9737 85.2577 58.8533 84.6188 58.8533C83.804 58.8533 83.1743 59.0478 82.7299 59.4367C82.2854 59.8163 82.0632 60.4598 82.0632 61.3672C82.0632 62.2376 82.2577 62.8765 82.6466 63.2839C83.0355 63.6821 83.679 63.8811 84.5771 63.8811C85.216 63.8811 85.804 63.7608 86.341 63.52V64.4367C86.054 64.5571 85.7438 64.645 85.4105 64.7006C85.0864 64.7654 84.7207 64.7978 84.3132 64.7978Z" fill="#333237"/>
<path d="M87.6176 64.6589V55.2977H88.7565V58.7839C89.0621 58.5339 89.4186 58.3302 89.826 58.1728C90.2427 58.0153 90.7241 57.9366 91.2704 57.9366C92.0667 57.9366 92.664 58.1311 93.0621 58.52C93.4603 58.9089 93.6593 59.52 93.6593 60.3533V64.6589H92.5205V60.395C92.5205 59.8209 92.3908 59.4228 92.1316 59.2005C91.8816 58.9691 91.4649 58.8533 90.8815 58.8533C90.5112 58.8533 90.1269 58.9366 89.7288 59.1033C89.3399 59.2607 89.0158 59.4691 88.7565 59.7283V64.6589H87.6176Z" fill="#333237"/>
<path d="M98.2017 64.7979C97.2758 64.7979 96.535 64.5942 95.9795 64.1867C95.4239 63.7793 95.1461 63.233 95.1461 62.5478C95.1461 61.9182 95.3406 61.3765 95.7295 60.9228C96.1183 60.4691 96.6508 60.0663 97.3267 59.7145C96.9656 59.3534 96.66 59.0154 96.41 58.7006C96.16 58.3858 96.035 58.0061 96.035 57.5617C96.035 57.0061 96.2248 56.5385 96.6045 56.1589C96.9934 55.77 97.5397 55.5756 98.2434 55.5756C98.9286 55.5756 99.461 55.7561 99.8406 56.1172C100.22 56.4783 100.41 56.9598 100.41 57.5617C100.41 58.0617 100.276 58.483 100.007 58.8256C99.7387 59.1682 99.3545 59.5154 98.8545 59.8673L101.16 62.2145C101.317 61.8719 101.396 61.4367 101.396 60.9089V60.7145H102.299V60.9089C102.299 61.2701 102.257 61.6219 102.174 61.9645C102.091 62.3071 101.97 62.6034 101.813 62.8534L103.063 64.1173L102.368 64.7423L101.257 63.6451C100.933 64.0432 100.512 64.3349 99.9934 64.5201C99.4749 64.7053 98.8776 64.7979 98.2017 64.7979ZM98.1461 59.3117C98.5813 59.0432 98.91 58.7886 99.1323 58.5478C99.3545 58.2978 99.4656 57.983 99.4656 57.6034C99.4656 57.2515 99.3684 56.9737 99.1739 56.77C98.9887 56.5571 98.6786 56.4506 98.2434 56.4506C97.7989 56.4506 97.4748 56.5617 97.2711 56.7839C97.0767 57.0061 96.9795 57.2793 96.9795 57.6034C96.9795 57.8997 97.0813 58.1728 97.285 58.4228C97.498 58.6728 97.785 58.9691 98.1461 59.3117ZM98.2017 63.9784C98.7387 63.9784 99.1971 63.8997 99.5767 63.7423C99.9656 63.5756 100.294 63.3303 100.563 63.0062L98.0211 60.4089C97.4193 60.6867 96.9702 60.9876 96.6739 61.3117C96.3869 61.6265 96.2433 62.0293 96.2433 62.5201C96.2433 63.0015 96.4285 63.3673 96.7989 63.6173C97.1693 63.858 97.6369 63.9784 98.2017 63.9784Z" fill="#FB8351"/>
<path d="M67.2334 49.2219V36.8372H70.8488V46.4526H76.4258V49.2219H67.2334Z" fill="#FB8351"/>
<path d="M82.2419 49.4142C80.4214 49.4142 79.0752 49.0103 78.2034 48.2026C77.3445 47.3949 76.915 46.2154 76.915 44.6641C76.915 43.1257 77.3509 41.9526 78.2227 41.1449C79.0945 40.3244 80.4342 39.9141 82.2419 39.9141C84.0625 39.9141 85.4086 40.3244 86.2804 41.1449C87.1651 41.9526 87.6074 43.1257 87.6074 44.6641C87.6074 46.2154 87.1715 47.3949 86.2997 48.2026C85.4279 49.0103 84.0753 49.4142 82.2419 49.4142ZM82.2419 46.7795C82.8317 46.7795 83.2548 46.6129 83.5112 46.2795C83.7804 45.9462 83.915 45.4077 83.915 44.6641C83.915 43.9334 83.7804 43.4013 83.5112 43.068C83.2548 42.7218 82.8317 42.5487 82.2419 42.5487C81.665 42.5487 81.2483 42.7218 80.9919 43.068C80.7355 43.4013 80.6073 43.9334 80.6073 44.6641C80.6073 45.4077 80.7355 45.9462 80.9919 46.2795C81.2483 46.6129 81.665 46.7795 82.2419 46.7795Z" fill="#FB8351"/>
<path d="M92.9621 52.6065C92.5134 52.6065 92.0262 52.5873 91.5006 52.5488C90.9749 52.5232 90.4749 52.4719 90.0006 52.395C89.539 52.3181 89.1544 52.2283 88.8467 52.1257V49.818C89.1929 49.9334 89.5903 50.0296 90.039 50.1065C90.5006 50.1834 90.9685 50.2411 91.4429 50.2796C91.9172 50.318 92.3531 50.3373 92.7506 50.3373C93.4301 50.3373 93.9621 50.2988 94.3468 50.2219C94.7442 50.1578 94.9429 50.036 94.9429 49.8565C94.9429 49.7027 94.8788 49.6001 94.7506 49.5488C94.6224 49.5103 94.3788 49.4911 94.0198 49.4911H91.616C90.6801 49.4911 89.9557 49.3437 89.4429 49.0488C88.9429 48.7411 88.6929 48.286 88.6929 47.6834C88.6929 46.8372 89.1608 46.2475 90.0967 45.9142C89.5711 45.6449 89.1865 45.3052 88.9429 44.8949C88.6993 44.4847 88.5775 43.9654 88.5775 43.3372C88.5775 42.1577 88.9749 41.2923 89.7698 40.741C90.5775 40.1898 91.7378 39.9141 93.2506 39.9141C93.5711 39.9141 93.9301 39.9397 94.3275 39.991C94.725 40.0295 95.0134 40.068 95.1929 40.1064H98.7699L98.6929 42.2987H97.4814C97.7122 42.5936 97.8276 42.9526 97.8276 43.3757C97.8276 44.3116 97.5519 45.0552 97.0006 45.6065C96.4622 46.1449 95.6096 46.4142 94.4429 46.4142C94.2762 46.4142 94.0968 46.4078 93.9044 46.3949C93.7121 46.3693 93.5326 46.3501 93.366 46.3372C93.0839 46.3629 92.8403 46.4142 92.6352 46.4911C92.4301 46.568 92.3275 46.6962 92.3275 46.8757C92.3275 47.0039 92.3852 47.0937 92.5006 47.1449C92.616 47.1834 92.7762 47.2026 92.9814 47.2026H95.0775C96.0134 47.2026 96.7506 47.4206 97.2891 47.8565C97.8276 48.2924 98.0968 48.9334 98.0968 49.7796C98.0968 50.677 97.6801 51.3693 96.8468 51.8565C96.0134 52.3565 94.7186 52.6065 92.9621 52.6065ZM93.2698 44.4334C93.8339 44.4334 94.225 44.3372 94.4429 44.1449C94.6609 43.9526 94.7698 43.6321 94.7698 43.1834C94.7698 42.7346 94.6609 42.4077 94.4429 42.2026C94.225 41.9975 93.8339 41.8949 93.2698 41.8949C92.7442 41.8949 92.3596 41.9975 92.116 42.2026C91.8852 42.3949 91.7698 42.7218 91.7698 43.1834C91.7698 43.6193 91.8788 43.9398 92.0967 44.1449C92.3275 44.3372 92.7185 44.4334 93.2698 44.4334Z" fill="#FB8351"/>
<path d="M104.666 49.4142C102.845 49.4142 101.499 49.0103 100.627 48.2026C99.768 47.3949 99.3385 46.2154 99.3385 44.6641C99.3385 43.1257 99.7744 41.9526 100.646 41.1449C101.518 40.3244 102.858 39.9141 104.666 39.9141C106.486 39.9141 107.832 40.3244 108.704 41.1449C109.589 41.9526 110.031 43.1257 110.031 44.6641C110.031 46.2154 109.595 47.3949 108.723 48.2026C107.851 49.0103 106.499 49.4142 104.666 49.4142ZM104.666 46.7795C105.255 46.7795 105.678 46.6129 105.935 46.2795C106.204 45.9462 106.339 45.4077 106.339 44.6641C106.339 43.9334 106.204 43.4013 105.935 43.068C105.678 42.7218 105.255 42.5487 104.666 42.5487C104.089 42.5487 103.672 42.7218 103.415 43.068C103.159 43.4013 103.031 43.9334 103.031 44.6641C103.031 45.4077 103.159 45.9462 103.415 46.2795C103.672 46.6129 104.089 46.7795 104.666 46.7795Z" fill="#FB8351"/>
<path d="M111.62 38.8948V36.2794H115.524V38.8948H111.62ZM111.908 49.2218V42.741H110.582L110.889 40.1064H115.524V49.2218H111.908Z" fill="#333237"/>
<path d="M117.258 53.3757V40.1064H120.393L120.566 40.8371C120.937 40.5423 121.341 40.3179 121.777 40.1641C122.226 39.9974 122.745 39.9141 123.335 39.9141C124.694 39.9141 125.739 40.2602 126.47 40.9525C127.213 41.632 127.585 42.7923 127.585 44.4333C127.585 46.0616 127.194 47.2987 126.412 48.1449C125.63 48.9911 124.553 49.4141 123.181 49.4141C122.271 49.4141 121.502 49.2411 120.873 48.8949V53.3757H117.258ZM122.258 46.7795C122.784 46.7795 123.188 46.5936 123.47 46.2218C123.752 45.85 123.893 45.2731 123.893 44.491C123.893 43.7346 123.758 43.2218 123.489 42.9526C123.232 42.6833 122.835 42.5487 122.296 42.5487C121.758 42.5487 121.284 42.7282 120.873 43.0872V46.318C121.079 46.4718 121.284 46.5872 121.489 46.6641C121.694 46.741 121.95 46.7795 122.258 46.7795Z" fill="#333237"/>
<path d="M132.403 49.4141C131.621 49.4141 130.884 49.3565 130.192 49.2411C129.512 49.1385 128.974 49.0039 128.576 48.8372V46.241C129.025 46.4462 129.557 46.6064 130.172 46.7218C130.801 46.8372 131.333 46.8949 131.768 46.8949C132.23 46.8949 132.576 46.8821 132.807 46.8564C133.051 46.8308 133.172 46.7218 133.172 46.5295C133.172 46.3116 132.961 46.1449 132.538 46.0295C132.115 45.9141 131.583 45.7474 130.942 45.5295C130.108 45.2346 129.486 44.8885 129.076 44.491C128.666 44.0936 128.461 43.5167 128.461 42.7602C128.461 41.85 128.82 41.1513 129.538 40.6641C130.256 40.1641 131.384 39.9141 132.922 39.9141C133.512 39.9141 134.121 39.9589 134.749 40.0487C135.377 40.1384 135.871 40.241 136.23 40.3564V42.8949C135.845 42.7282 135.422 42.6064 134.961 42.5295C134.512 42.4525 134.102 42.4141 133.73 42.4141C133.32 42.4141 132.954 42.4333 132.634 42.4718C132.313 42.5102 132.153 42.6192 132.153 42.7987C132.153 43.0038 132.333 43.1513 132.692 43.241C133.063 43.3308 133.557 43.4718 134.172 43.6641C134.865 43.8692 135.403 44.0936 135.788 44.3372C136.185 44.5808 136.461 44.8756 136.615 45.2218C136.781 45.568 136.865 45.9974 136.865 46.5103C136.865 47.4334 136.486 48.1513 135.73 48.6641C134.986 49.1641 133.877 49.4141 132.403 49.4141Z" fill="#333237"/>
<path d="M141.524 49.4141C140.46 49.4141 139.627 49.1129 139.024 48.5103C138.422 47.9077 138.121 47.0231 138.121 45.8564V40.1064H141.736V45.568C141.736 46.3628 142.14 46.7603 142.947 46.7603C143.242 46.7603 143.531 46.6962 143.813 46.568C144.095 46.4398 144.319 46.2795 144.486 46.0872V40.1064H148.101V49.2218H144.717L144.621 48.5295C144.262 48.7859 143.819 48.9975 143.294 49.1641C142.781 49.3308 142.191 49.4141 141.524 49.4141Z" fill="#333237"/>
<path d="M149.823 49.2218V40.1064H153.169L153.265 40.8371C153.663 40.5679 154.105 40.35 154.592 40.1833C155.092 40.0038 155.637 39.9141 156.227 39.9141C156.816 39.9141 157.278 39.9974 157.611 40.1641C157.945 40.3307 158.214 40.5743 158.419 40.8948C158.829 40.6 159.291 40.3628 159.804 40.1833C160.329 40.0038 160.945 39.9141 161.65 39.9141C162.714 39.9141 163.496 40.1961 163.996 40.7602C164.496 41.3115 164.746 42.1577 164.746 43.2987V49.2218H161.188V43.7218C161.188 43.3115 161.105 43.0231 160.938 42.8564C160.772 42.6769 160.496 42.5872 160.111 42.5872C159.611 42.5872 159.201 42.7667 158.881 43.1256C158.906 43.2923 158.919 43.4526 158.919 43.6064C158.919 43.7474 158.919 43.9077 158.919 44.0872V49.2218H155.573V43.6641C155.573 43.2923 155.509 43.0231 155.381 42.8564C155.252 42.6769 155.009 42.5872 154.65 42.5872C154.406 42.5872 154.169 42.6513 153.938 42.7795C153.707 42.9077 153.502 43.0615 153.323 43.241V49.2218H149.823Z" fill="#333237"/>
<path d="M108.951 64.9125C107.988 64.9125 107.187 64.7319 106.548 64.3708C105.919 64.0004 105.447 63.4865 105.132 62.8291C104.817 62.1625 104.66 61.3847 104.66 60.4958C104.66 59.5236 104.808 58.6763 105.104 57.9541C105.4 57.2319 105.863 56.6763 106.493 56.2874C107.123 55.8893 107.937 55.6902 108.937 55.6902C109.456 55.6902 109.923 55.7272 110.34 55.8013C110.766 55.8754 111.164 55.9772 111.535 56.1069V57.1069C111.164 56.968 110.771 56.8615 110.354 56.7874C109.937 56.7041 109.498 56.6624 109.035 56.6624C108.229 56.6624 107.59 56.8152 107.118 57.1208C106.646 57.4263 106.308 57.8661 106.104 58.4402C105.9 59.0143 105.798 59.6995 105.798 60.4958C105.798 61.5976 106.058 62.4495 106.576 63.0514C107.104 63.644 107.933 63.9403 109.062 63.9403C109.479 63.9403 109.9 63.9078 110.326 63.843C110.761 63.7782 111.164 63.6764 111.535 63.5375V64.5514C111.173 64.6625 110.78 64.7504 110.354 64.8153C109.937 64.8801 109.47 64.9125 108.951 64.9125Z" fill="#333237"/>
<path d="M116.211 64.9125C115.063 64.9125 114.225 64.6208 113.697 64.0375C113.179 63.4449 112.92 62.593 112.92 61.4819C112.92 60.38 113.184 59.5328 113.711 58.9402C114.239 58.3476 115.073 58.0513 116.211 58.0513C117.35 58.0513 118.184 58.3476 118.711 58.9402C119.239 59.5328 119.503 60.38 119.503 61.4819C119.503 62.593 119.244 63.4449 118.725 64.0375C118.207 64.6208 117.369 64.9125 116.211 64.9125ZM116.211 63.9403C116.998 63.9403 117.554 63.7458 117.878 63.3569C118.202 62.9588 118.364 62.3338 118.364 61.4819C118.364 60.63 118.198 60.0097 117.864 59.6208C117.54 59.2226 116.989 59.0235 116.211 59.0235C115.434 59.0235 114.878 59.2226 114.545 59.6208C114.221 60.0097 114.059 60.63 114.059 61.4819C114.059 62.3338 114.221 62.9588 114.545 63.3569C114.869 63.7458 115.424 63.9403 116.211 63.9403Z" fill="#333237"/>
<path d="M120.895 64.7736V63.8153H121.923V64.7736H120.895Z" fill="#333237"/>
</svg>
