<svg width="177" height="100" viewBox="0 0 177 100" fill="none" xmlns="http://www.w3.org/2000/svg">
<path d="M65.9844 55.2899C65.9844 53.0298 66.4295 50.7919 67.2944 48.7039C68.1593 46.6159 69.427 44.7187 71.0251 43.1206C72.6232 41.5224 74.5204 40.2548 76.6084 39.3899C78.6964 38.525 80.9344 38.0798 83.1944 38.0798V55.2899H65.9844Z" fill="#442781"/>
<path d="M65.9844 55.2899C65.9844 57.55 66.4295 59.7879 67.2944 61.8759C68.1593 63.964 69.427 65.8612 71.0251 67.4593C72.6232 69.0574 74.5204 70.3251 76.6084 71.1899C78.6964 72.0549 80.9344 72.5 83.1944 72.5V55.2899H65.9844Z" fill="#442781"/>
<path d="M100.404 55.2899C100.404 57.55 99.9594 59.7879 99.0946 61.8759C98.2297 63.964 96.962 65.8612 95.3637 67.4593C93.7656 69.0574 91.8683 70.3251 89.7803 71.1899C87.6923 72.0549 85.4544 72.5 83.1943 72.5V55.2899H100.404Z" fill="#442781"/>
<path d="M111.016 40.422C111.016 47.5586 105.23 53.344 98.0936 53.344H85.1716V40.422C85.1716 33.2854 90.957 27.5 98.0936 27.5C105.23 27.5 111.016 33.2854 111.016 40.422Z" fill="#FF7917"/>
</svg>
