<svg width="177" height="100" viewBox="0 0 177 100" fill="none" xmlns="http://www.w3.org/2000/svg">
<path d="M68.9638 75.8239H65.4306C65.4179 76.0908 65.3544 76.3449 65.2018 76.561C64.7824 77.171 63.8292 77.4379 62.4948 77.4379C61.351 77.4379 60.2453 77.1583 59.7496 76.4212C59.5081 76.0781 59.3937 75.6078 59.3937 74.9215C59.3937 74.2861 59.4827 73.7777 59.7114 73.4345C60.1563 72.7355 61.1349 72.3924 62.4821 72.3924C63.969 72.3924 64.7824 72.7864 65.151 73.3201C65.3035 73.5362 65.3925 73.8285 65.4052 74.0573H68.9384C68.9257 73.7396 68.8621 73.1549 68.6588 72.6339C68.0614 71.1469 66.4346 69.7489 62.5202 69.7489C59.6479 69.7489 57.8178 70.5114 56.801 71.7823C56.1656 72.5576 55.8478 73.6125 55.8478 74.8834C55.8478 76.2814 56.191 77.3744 56.8646 78.1624C57.8432 79.3443 59.6606 80.0433 62.4567 80.0433C65.9517 80.0433 67.7945 79.0901 68.5952 77.3744C68.8494 76.8787 68.9257 76.1797 68.9638 75.8239Z" fill="#394149"/>
<path d="M79.8772 79.8908V77.2346H73.8022V69.9141H70.358V79.8908H79.8772Z" fill="#394149"/>
<path d="M91.7409 79.8908V77.4125H84.5856V76.1162H91.4486V73.6887H84.5856V72.4051H91.652V69.9141H81.2304V79.8908H91.7409Z" fill="#394149"/>
<path fill-rule="evenodd" clip-rule="evenodd" d="M96.8253 78.048H102.214L103.091 79.8908H106.764L101.731 69.9141H97.626L92.3008 79.8908H95.8975L96.8253 78.048ZM101.134 75.8112H97.9437L99.202 73.4091L99.5832 72.494L99.9391 73.3964L101.134 75.8112Z" fill="#394149"/>
<path fill-rule="evenodd" clip-rule="evenodd" d="M119.536 72.9516C119.536 72.0492 119.32 71.401 118.862 70.9308C118.265 70.2953 117.235 69.9141 115.66 69.9141H107.716V79.8908H111.11V76.3704H114.198L116.676 79.8908H120.464L117.452 75.8239C118.125 75.7222 118.672 75.3155 119.027 74.8325C119.345 74.3877 119.536 73.7268 119.536 72.9516ZM116.231 73.2693C116.231 73.4345 116.206 73.6379 116.117 73.7904C115.99 74.0446 115.66 74.1463 115.113 74.1463H111.122V72.3288H115.049C115.583 72.3288 115.939 72.4178 116.117 72.7482C116.206 72.8753 116.231 73.0787 116.231 73.2693Z" fill="#394149"/>
<path d="M100.682 24.997C100.771 24.8445 100.796 24.6412 100.796 24.4759C100.796 24.2853 100.771 24.082 100.682 23.9549C100.504 23.6244 100.148 23.5355 99.6141 23.5355H95.687V25.3529H99.6777C100.224 25.3529 100.555 25.2512 100.682 24.997Z" fill="#394149"/>
<path d="M110.732 27.0178H113.922L112.727 24.603L112.371 23.7007L111.99 24.6158L110.732 27.0178Z" fill="#394149"/>
<path fill-rule="evenodd" clip-rule="evenodd" d="M58.0353 17.2386C53.8749 17.2386 50.453 20.4005 50.0415 24.4523C50.0141 24.7225 50 24.9965 50 25.2739V75.5597C50 79.9975 53.5975 83.595 58.0353 83.595H117.965C122.403 83.595 126 79.9975 126 75.5597V25.2739C126 20.8361 122.403 17.2386 117.965 17.2386H58.0353ZM78.681 48.8471L51.674 39.7131V46.2364L77.6445 50.3128C77.2636 51.1455 77.1881 52.0192 77.4295 52.8757C77.6337 53.6003 78.0595 54.2939 78.6809 54.9244L51.674 64.0584V65.6353H64.1939L80.3296 56.183C80.9724 56.5595 81.6952 56.8839 82.4783 57.1488L74.1141 65.6353H81.3762L84.9804 57.7558C86.7373 58.0315 88.5892 58.0321 90.3499 57.7557L93.9547 65.6353H101.217L90.9558 55.2245C90.4551 55.3939 89.9213 55.5229 89.3688 55.6096L89.3683 55.6097C88.677 55.7182 87.9564 55.7605 87.2347 55.7328C85.9358 55.6829 84.6913 55.4085 83.6586 54.9444C82.626 54.4802 81.8514 53.847 81.433 53.125C81.0146 52.4029 80.9711 51.6244 81.308 50.8879C81.6449 50.1514 82.3471 49.4899 83.3257 48.9871C84.3044 48.4844 85.5155 48.1629 86.806 48.0634C88.0966 47.9639 89.4085 48.0907 90.5759 48.428C91.7434 48.7652 92.7139 49.2977 93.3647 49.9581L124.326 39.4868V35.1984H116.152L95.0007 47.5888C94.2826 47.1681 93.4595 46.8095 92.5552 46.5263C91.8526 46.3063 91.1126 46.1356 90.3504 46.0159L95.2983 35.1984H87.6655V45.8087C87.4394 45.8087 87.2129 45.8131 86.9864 45.8218C86.3055 45.8479 85.6338 45.9132 84.9804 46.0157L80.0325 35.1984H71.2187L82.4784 46.6228C82.185 46.722 81.8992 46.8298 81.6223 46.9461C80.4179 47.4517 79.4167 48.1006 78.681 48.8471ZM87.6655 51.8857L124.326 64.2847V57.6401L87.6655 51.8857ZM51.674 67.3093H124.326V75.5597C124.326 79.0729 121.478 81.9209 117.965 81.9209H58.0353C54.522 81.9209 51.674 79.0729 51.674 75.5597V67.3093ZM69.5029 21.1207V27.2466C69.5029 29.9409 67.0628 31.2373 63.3644 31.2373C59.9075 31.2373 57.4291 29.9536 57.4291 26.9288V21.1207H60.8733V26.9288C60.8733 28.0091 61.8011 28.6827 63.5042 28.6827C65.1309 28.6827 66.0968 27.9837 66.0968 26.9415V21.1207H69.5029ZM80.9738 28.4412V31.0975H71.4546V21.1207H74.8988V28.4412H80.9738ZM91.2096 23.6244V21.1207H79.3011V23.6244H83.5078V31.0975H86.9902V23.6244H91.2096ZM103.427 22.1374C103.884 22.6077 104.1 23.2559 104.1 24.1582C104.1 24.9335 103.91 25.5944 103.592 26.0392C103.236 26.5221 102.69 26.9288 102.016 27.0305L105.028 31.0975H101.241L98.7626 27.577H95.6742V31.0975H92.2809V21.1207H100.224C101.8 21.1207 102.83 21.502 103.427 22.1374ZM109.613 29.2546H115.002L115.879 31.0975H119.552L114.519 21.1207H110.414L105.089 31.0975H108.686L109.613 29.2546Z" fill="#394149"/>
</svg>
