<svg width="177" height="100" viewBox="0 0 177 100" fill="none" xmlns="http://www.w3.org/2000/svg">
<path d="M98.8677 50C98.8677 62.4264 88.7941 72.5 76.3677 72.5C63.9413 72.5 53.8677 62.4264 53.8677 50C53.8677 37.5736 63.9413 27.5 76.3677 27.5C88.7941 27.5 98.8677 37.5736 98.8677 50Z" fill="#68DBFF"/>
<path d="M123.132 50C123.132 62.4264 113.157 72.5 100.853 72.5C88.5483 72.5 78.5735 62.4264 78.5735 50C78.5735 37.5736 88.5483 27.5 100.853 27.5C113.157 27.5 123.132 37.5736 123.132 50Z" fill="#FF7917"/>
<path d="M88.6705 68.8416C94.8109 64.824 98.8676 57.8858 98.8676 50.0001C98.8676 42.1144 94.8109 35.1762 88.6705 31.1586C82.5904 35.1762 78.5735 42.1144 78.5735 50.0001C78.5735 57.8858 82.5904 64.824 88.6705 68.8416Z" fill="#5D2C02"/>
</svg>
